<?xml version="1.0" encoding="UTF-8"?>
<svg version="1.1" xmlns="http://www.w3.org/2000/svg" width="377" height="375">
<path d="M0 0 C2.31696348 2.05672922 4.60291368 4.14390101 6.875 6.25 C8.13183594 7.40048828 8.13183594 7.40048828 9.4140625 8.57421875 C37.90384219 35.80561595 55.45374426 75.91453027 56.83984375 115.05078125 C57.44377885 148.44521366 46.48087347 178.31510942 28.875 206.25 C29.33996384 206.71496384 29.80492767 207.17992767 30.28398132 207.65898132 C41.12901815 218.50401815 51.97405497 229.34905497 62.8190918 240.1940918 C63.52665619 240.90101166 64.23422058 241.60793152 64.96322632 242.33627319 C66.12460444 243.49883781 67.28389992 244.66349457 68.43936157 245.8319397 C71.1082054 248.52839204 73.89710335 250.89902896 76.875 253.25 C78.6875 254.875 78.6875 254.875 79.875 256.25 C79.875 256.91 79.875 257.57 79.875 258.25 C80.74125 258.62125 80.74125 258.62125 81.625 259 C84.20439979 260.43299988 85.93621592 262.03424676 87.875 264.25 C87.875 264.91 87.875 265.57 87.875 266.25 C88.865 266.58 89.855 266.91 90.875 267.25 C90.875 267.91 90.875 268.57 90.875 269.25 C91.865 269.58 92.855 269.91 93.875 270.25 C93.875 270.91 93.875 271.57 93.875 272.25 C94.535 272.25 95.195 272.25 95.875 272.25 C99.32997249 278.29218444 101.78827768 283.77902866 100.3515625 290.8125 C96.32152852 303.82692165 85.64709376 314.1643756 74.05859375 320.8828125 C65.07509246 325.45955988 55.29070887 327.13515723 45.32421875 324.6015625 C38.69864434 321.49457971 33.38413782 316.03092074 28.671875 310.55859375 C24.7245355 306.00271704 20.48559009 301.7851188 16.1875 297.5625 C11.82727255 293.27764381 7.64556462 289.07205106 3.875 284.25 C2.23552652 282.55657676 0.56225454 280.89582128 -1.125 279.25 C-4.40215764 276.02720453 -7.67040246 272.79548914 -10.9375 269.5625 C-11.82115234 268.69560547 -12.70480469 267.82871094 -13.61523438 266.93554688 C-14.44990234 266.10732422 -15.28457031 265.27910156 -16.14453125 264.42578125 C-16.90870361 263.67208252 -17.67287598 262.91838379 -18.46020508 262.1418457 C-20.125 260.25 -20.125 260.25 -20.125 258.25 C-21.11757812 258.75789063 -22.11015625 259.26578125 -23.1328125 259.7890625 C-64.71498309 280.92825601 -111.42303739 287.84578912 -156.74121094 273.85595703 C-176.36017431 267.36672695 -194.65158806 256.92939317 -210.125 243.25 C-210.62032227 242.82557617 -211.11564453 242.40115234 -211.62597656 241.96386719 C-242.59121055 215.39195825 -264.64948382 175.18385727 -268.125 134.25 C-268.9901853 117.59257701 -269.40104784 100.47837434 -265.125 84.25 C-264.95339355 83.56663574 -264.78178711 82.88327148 -264.60498047 82.17919922 C-259.11474392 60.55679307 -249.08082401 40.64035955 -235.125 23.25 C-234.37089844 22.29222656 -233.61679688 21.33445313 -232.83984375 20.34765625 C-228.25227529 14.61122845 -223.41083888 9.34245453 -218.125 4.25 C-217.33222656 3.44691406 -216.53945312 2.64382812 -215.72265625 1.81640625 C-195.93244809 -17.73572422 -170.11964039 -30.65780403 -143.125 -36.75 C-141.96991943 -37.01466064 -141.96991943 -37.01466064 -140.79150391 -37.28466797 C-90.73828092 -48.13867656 -38.34775876 -33.18893298 0 0 Z " fill="#FDFEFD" transform="translate(273.125,45.75)"/>
<path d="M0 0 C2.31696348 2.05672922 4.60291368 4.14390101 6.875 6.25 C8.13183594 7.40048828 8.13183594 7.40048828 9.4140625 8.57421875 C37.90384219 35.80561595 55.45374426 75.91453027 56.83984375 115.05078125 C57.44377885 148.44521366 46.48087347 178.31510942 28.875 206.25 C29.33996384 206.71496384 29.80492767 207.17992767 30.28398132 207.65898132 C41.12901815 218.50401815 51.97405497 229.34905497 62.8190918 240.1940918 C63.52665619 240.90101166 64.23422058 241.60793152 64.96322632 242.33627319 C66.12460444 243.49883781 67.28389992 244.66349457 68.43936157 245.8319397 C71.1082054 248.52839204 73.89710335 250.89902896 76.875 253.25 C78.6875 254.875 78.6875 254.875 79.875 256.25 C79.875 256.91 79.875 257.57 79.875 258.25 C80.74125 258.62125 80.74125 258.62125 81.625 259 C84.20439979 260.43299988 85.93621592 262.03424676 87.875 264.25 C87.875 264.91 87.875 265.57 87.875 266.25 C88.865 266.58 89.855 266.91 90.875 267.25 C90.875 267.91 90.875 268.57 90.875 269.25 C91.865 269.58 92.855 269.91 93.875 270.25 C93.875 270.91 93.875 271.57 93.875 272.25 C94.535 272.25 95.195 272.25 95.875 272.25 C99.32997249 278.29218444 101.78827768 283.77902866 100.3515625 290.8125 C96.32152852 303.82692165 85.64709376 314.1643756 74.05859375 320.8828125 C65.07509246 325.45955988 55.29070887 327.13515723 45.32421875 324.6015625 C38.69864434 321.49457971 33.38413782 316.03092074 28.671875 310.55859375 C24.7245355 306.00271704 20.48559009 301.7851188 16.1875 297.5625 C11.82727255 293.27764381 7.64556462 289.07205106 3.875 284.25 C2.23552652 282.55657676 0.56225454 280.89582128 -1.125 279.25 C-4.40215764 276.02720453 -7.67040246 272.79548914 -10.9375 269.5625 C-11.82115234 268.69560547 -12.70480469 267.82871094 -13.61523438 266.93554688 C-14.44990234 266.10732422 -15.28457031 265.27910156 -16.14453125 264.42578125 C-16.90870361 263.67208252 -17.67287598 262.91838379 -18.46020508 262.1418457 C-20.125 260.25 -20.125 260.25 -20.125 258.25 C-21.11757812 258.75789063 -22.11015625 259.26578125 -23.1328125 259.7890625 C-64.71498309 280.92825601 -111.42303739 287.84578912 -156.74121094 273.85595703 C-176.36017431 267.36672695 -194.65158806 256.92939317 -210.125 243.25 C-210.62032227 242.82557617 -211.11564453 242.40115234 -211.62597656 241.96386719 C-242.59121055 215.39195825 -264.64948382 175.18385727 -268.125 134.25 C-268.9901853 117.59257701 -269.40104784 100.47837434 -265.125 84.25 C-264.95339355 83.56663574 -264.78178711 82.88327148 -264.60498047 82.17919922 C-259.11474392 60.55679307 -249.08082401 40.64035955 -235.125 23.25 C-234.37089844 22.29222656 -233.61679688 21.33445313 -232.83984375 20.34765625 C-228.25227529 14.61122845 -223.41083888 9.34245453 -218.125 4.25 C-217.33222656 3.44691406 -216.53945312 2.64382812 -215.72265625 1.81640625 C-195.93244809 -17.73572422 -170.11964039 -30.65780403 -143.125 -36.75 C-141.96991943 -37.01466064 -141.96991943 -37.01466064 -140.79150391 -37.28466797 C-90.73828092 -48.13867656 -38.34775876 -33.18893298 0 0 Z M-152.1875 8.875 C-153.01620605 9.21345947 -153.84491211 9.55191895 -154.69873047 9.90063477 C-166.38208903 14.85324114 -176.85297392 21.42506548 -186.01171875 30.2421875 C-188.125 32.25 -188.125 32.25 -190.625 34.19140625 C-195.15013882 37.91757525 -198.53050911 42.64832794 -202.125 47.25 C-202.81078125 48.12011719 -203.4965625 48.99023438 -204.203125 49.88671875 C-222.25820801 73.66398358 -230.27793246 103.67708525 -226.75878906 133.33642578 C-221.80290471 166.42545407 -205.99223926 196.53705961 -179.26123047 217.18603516 C-166.17043116 226.8301049 -150.81887282 233.24202633 -135.125 237.25 C-134.43768799 237.43473877 -133.75037598 237.61947754 -133.04223633 237.80981445 C-125.50666059 239.60422691 -117.94038902 239.58777743 -110.2409668 239.56567383 C-107.95897878 239.56252959 -105.67831162 239.58598816 -103.39648438 239.61132812 C-89.95016427 239.67097518 -77.46737612 237.43179926 -64.6875 233.125 C-63.8013501 232.8264209 -62.9152002 232.5278418 -62.00219727 232.22021484 C-33.10040144 222.05140159 -9.13257151 199.55628204 4.17822266 172.14746094 C16.62344219 145.6652661 21.09357041 114.08158049 11.79541016 85.79296875 C5.17813221 67.51032496 -4.72653924 52.26419884 -18.125 38.25 C-18.723125 37.58871094 -19.32125 36.92742187 -19.9375 36.24609375 C-34.31024529 20.91310039 -54.83374171 9.38797415 -75.125 4.25 C-76.09445557 3.99323486 -77.06391113 3.73646973 -78.06274414 3.47192383 C-87.00185657 1.30570311 -95.4633874 0.75252748 -104.62817383 0.80395508 C-106.92555895 0.81245582 -109.22043676 0.78358879 -111.51757812 0.75195312 C-125.72504288 0.68327449 -139.02009394 3.43320888 -152.1875 8.875 Z " fill="#548009" transform="translate(273.125,45.75)"/>
<path d="M0 0 C2.31696348 2.05672922 4.60291368 4.14390101 6.875 6.25 C8.13183594 7.40048828 8.13183594 7.40048828 9.4140625 8.57421875 C37.90384219 35.80561595 55.45374426 75.91453027 56.83984375 115.05078125 C57.44377885 148.44521366 46.48087347 178.31510942 28.875 206.25 C29.33996384 206.71496384 29.80492767 207.17992767 30.28398132 207.65898132 C41.12901815 218.50401815 51.97405497 229.34905497 62.8190918 240.1940918 C63.52665619 240.90101166 64.23422058 241.60793152 64.96322632 242.33627319 C66.12460444 243.49883781 67.28389992 244.66349457 68.43936157 245.8319397 C71.1082054 248.52839204 73.89710335 250.89902896 76.875 253.25 C78.6875 254.875 78.6875 254.875 79.875 256.25 C79.875 256.91 79.875 257.57 79.875 258.25 C80.74125 258.62125 80.74125 258.62125 81.625 259 C84.20439979 260.43299988 85.93621592 262.03424676 87.875 264.25 C87.875 264.91 87.875 265.57 87.875 266.25 C88.865 266.58 89.855 266.91 90.875 267.25 C90.875 267.91 90.875 268.57 90.875 269.25 C91.865 269.58 92.855 269.91 93.875 270.25 C93.875 270.91 93.875 271.57 93.875 272.25 C94.535 272.25 95.195 272.25 95.875 272.25 C99.32997249 278.29218444 101.78827768 283.77902866 100.3515625 290.8125 C96.32152852 303.82692165 85.64709376 314.1643756 74.05859375 320.8828125 C65.07509246 325.45955988 55.29070887 327.13515723 45.32421875 324.6015625 C38.69864434 321.49457971 33.38413782 316.03092074 28.671875 310.55859375 C24.7245355 306.00271704 20.48559009 301.7851188 16.1875 297.5625 C11.82727255 293.27764381 7.64556462 289.07205106 3.875 284.25 C2.23552652 282.55657676 0.56225454 280.89582128 -1.125 279.25 C-4.40215764 276.02720453 -7.67040246 272.79548914 -10.9375 269.5625 C-11.82115234 268.69560547 -12.70480469 267.82871094 -13.61523438 266.93554688 C-14.44990234 266.10732422 -15.28457031 265.27910156 -16.14453125 264.42578125 C-16.90870361 263.67208252 -17.67287598 262.91838379 -18.46020508 262.1418457 C-20.125 260.25 -20.125 260.25 -20.125 258.25 C-21.11757812 258.75789063 -22.11015625 259.26578125 -23.1328125 259.7890625 C-64.71498309 280.92825601 -111.42303739 287.84578912 -156.74121094 273.85595703 C-176.36017431 267.36672695 -194.65158806 256.92939317 -210.125 243.25 C-210.62032227 242.82557617 -211.11564453 242.40115234 -211.62597656 241.96386719 C-242.59121055 215.39195825 -264.64948382 175.18385727 -268.125 134.25 C-268.9901853 117.59257701 -269.40104784 100.47837434 -265.125 84.25 C-264.95339355 83.56663574 -264.78178711 82.88327148 -264.60498047 82.17919922 C-259.11474392 60.55679307 -249.08082401 40.64035955 -235.125 23.25 C-234.37089844 22.29222656 -233.61679688 21.33445313 -232.83984375 20.34765625 C-228.25227529 14.61122845 -223.41083888 9.34245453 -218.125 4.25 C-217.33222656 3.44691406 -216.53945312 2.64382812 -215.72265625 1.81640625 C-195.93244809 -17.73572422 -170.11964039 -30.65780403 -143.125 -36.75 C-141.96991943 -37.01466064 -141.96991943 -37.01466064 -140.79150391 -37.28466797 C-90.73828092 -48.13867656 -38.34775876 -33.18893298 0 0 Z M-211.125 14.25 C-212.78901486 15.91931427 -214.45577514 17.58589546 -216.125 19.25 C-235.59602668 38.78851724 -247.96443824 63.51776797 -254.125 90.25 C-254.39054687 91.39855469 -254.65609375 92.54710937 -254.9296875 93.73046875 C-261.72750759 131.21160006 -251.40793882 172.67436013 -229.99316406 203.90039062 C-206.29909327 237.16284139 -172.84625398 260.36866863 -132.3828125 267.3046875 C-124.00920188 268.55978185 -115.69945597 268.6472796 -107.25 268.625 C-106.436521 268.62412384 -105.62304199 268.62324768 -104.78491211 268.62234497 C-73.02837933 268.50986289 -46.59562002 259.59754583 -19.125 244.25 C-16.09989042 247.24571324 -13.08072125 250.24734805 -10.0625 253.25 C-8.79116211 254.50876953 -8.79116211 254.50876953 -7.49414062 255.79296875 C-3.80562486 259.46724314 -0.16311295 263.12989503 3.21484375 267.09375 C8.25687695 272.96813523 13.87112313 278.3134979 19.375 283.75 C32.00757575 296.22793623 32.00757575 296.22793623 37.49707031 302.66308594 C41.93663414 307.77597837 46.92636201 312.62647161 53.828125 313.49609375 C62.72614469 314.00944104 69.49429095 310.75589287 76.125 305 C81.91117322 299.47807721 87.1032139 294.17013636 88.375 286.0625 C87.84216185 281.9996091 87.40999246 281.32669975 84.77781677 278.45288086 C84.13979567 277.75339325 83.50177456 277.05390564 82.84441948 276.33322144 C79.91837037 273.23809199 76.95070048 270.19411438 73.92993164 267.19140625 C72.94816452 266.20942009 72.94816452 266.20942009 71.94656372 265.20759583 C69.81179311 263.07351433 67.67351725 260.94298335 65.53515625 258.8125 C64.04278522 257.32199672 62.5506368 255.83127052 61.05870056 254.34033203 C57.15324587 250.43867446 53.24479621 246.5400308 49.33569336 242.64202881 C45.33850202 238.65511224 41.34418061 234.66532264 37.34960938 230.67578125 C29.52752958 222.86438923 21.70227952 215.05618147 13.875 207.25 C14.99645142 205.48413695 16.1183666 203.71856841 17.24047852 201.953125 C18.17755394 200.47827637 18.17755394 200.47827637 19.13356018 198.97363281 C20.41394466 196.9710961 21.71494278 194.98170165 23.02734375 193 C32.52823563 178.36405277 38.18918811 162.22838694 41.875 145.25 C42.12121094 144.14269531 42.36742187 143.03539062 42.62109375 141.89453125 C49.12852668 105.76705876 39.76748039 68.66794167 19.41796875 38.484375 C15.28586757 32.83982348 10.67264791 27.62902698 5.9296875 22.4921875 C4.15810243 20.55893687 2.47717659 18.58710666 0.8125 16.5625 C-15.90510621 -2.91125209 -41.47915342 -15.97391354 -65.75 -23.0625 C-66.57185791 -23.30500488 -67.39371582 -23.54750977 -68.24047852 -23.79736328 C-81.14868496 -27.38473677 -94.12078797 -28.19456898 -107.4375 -28.1875 C-108.22158234 -28.18790283 -109.00566467 -28.18830566 -109.81350708 -28.1887207 C-148.30066641 -28.07553322 -184.6371437 -14.20396522 -211.125 14.25 Z " fill="#FBFCFA" transform="translate(273.125,45.75)"/>
<path d="M0 0 C1.8862207 0.00483398 1.8862207 0.00483398 3.81054688 0.00976562 C5.6909668 -0.0144043 5.6909668 -0.0144043 7.609375 -0.0390625 C8.80884766 -0.03970703 10.00832031 -0.04035156 11.24414062 -0.04101562 C12.34685303 -0.04399658 13.44956543 -0.04697754 14.58569336 -0.05004883 C17.37304688 0.32226562 17.37304688 0.32226562 19.02597046 1.45706177 C20.98184093 4.16522079 20.73317992 6.21969148 20.71362305 9.5378418 C20.71339645 10.81894333 20.71316986 12.10004486 20.7129364 13.41996765 C20.69761645 14.81839344 20.68196846 16.21681566 20.66601562 17.61523438 C20.66041955 19.04583797 20.65614951 20.47644732 20.65315247 21.90705872 C20.64170443 25.67027695 20.61223802 29.43314718 20.57904053 33.19622803 C20.5483385 37.0370208 20.53464687 40.87786986 20.51953125 44.71875 C20.48736793 52.25341377 20.43617254 59.78779091 20.37304688 67.32226562 C21.1328183 67.3178244 21.89258972 67.31338318 22.67538452 67.30880737 C29.82680004 67.26877468 36.97816142 67.23830374 44.12965965 67.21864128 C47.80654038 67.20819288 51.48332871 67.1940146 55.16015625 67.17138672 C58.70684343 67.14969572 62.2534416 67.13770496 65.80018997 67.13251114 C67.1550194 67.12880862 68.50984382 67.12157873 69.86463547 67.11080551 C71.75850445 67.09634115 73.65246252 67.09544914 75.54638672 67.09521484 C76.62560394 67.09077362 77.70482117 67.0863324 78.81674194 67.08175659 C81.37304688 67.32226562 81.37304688 67.32226562 83.37304688 69.32226562 C83.6159668 72.01196289 83.6159668 72.01196289 83.60351562 75.38867188 C83.60158203 76.59587891 83.59964844 77.80308594 83.59765625 79.046875 C83.58541016 80.31337891 83.57316406 81.57988281 83.56054688 82.88476562 C83.55958008 84.79032227 83.55958008 84.79032227 83.55859375 86.734375 C83.51314741 96.18216509 83.51314741 96.18216509 82.37304688 97.32226562 C80.43998189 97.4162262 78.50345849 97.4397008 76.56811523 97.43579102 C75.32690414 97.43571548 74.08569305 97.43563995 72.80686951 97.43556213 C71.44220948 97.43045473 70.07754985 97.42523872 68.71289062 97.41992188 C67.32426504 97.41805763 65.9356388 97.41663376 64.54701233 97.41563416 C60.88583573 97.41180949 57.22469857 97.40197966 53.5635376 97.39093018 C49.83012424 97.38071495 46.09670454 97.3761363 42.36328125 97.37109375 C35.03318511 97.36035733 27.70312151 97.34328154 20.37304688 97.32226562 C20.3774881 98.15720551 20.38192932 98.99214539 20.38650513 99.85238647 C20.42653279 107.71017187 20.45700624 115.56792317 20.47667122 123.42578697 C20.48712094 127.46586827 20.50130168 131.50586552 20.52392578 135.54589844 C20.54561199 139.44271295 20.55760654 143.33944649 20.56280136 147.23631668 C20.56650474 148.72511699 20.57373625 150.21391273 20.58450699 151.70267868 C20.59896607 153.78349229 20.6010272 155.86396869 20.60009766 157.94482422 C20.60453888 159.1306308 20.6089801 160.31643738 20.61355591 161.53817749 C20.37304688 164.32226563 20.37304688 164.32226563 18.37304688 166.32226562 C15.60742187 166.58105469 15.60742187 166.58105469 12.12304688 166.58789062 C10.87523437 166.59046875 9.62742187 166.59304687 8.34179688 166.59570312 C6.37726563 166.58410156 6.37726563 166.58410156 4.37304688 166.57226562 C3.06335938 166.58 1.75367188 166.58773437 0.40429688 166.59570312 C-0.84351563 166.593125 -2.09132813 166.59054688 -3.37695312 166.58789062 C-4.52679688 166.58563477 -5.67664063 166.58337891 -6.86132812 166.58105469 C-9.62695312 166.32226562 -9.62695312 166.32226562 -11.62695312 164.32226562 C-11.86746216 161.53817749 -11.86746216 161.53817749 -11.85400391 157.94482422 C-11.85429596 157.29104294 -11.85458801 156.63726166 -11.85488892 155.96366882 C-11.85349377 153.79921266 -11.83792432 151.63509927 -11.82226562 149.47070312 C-11.81853614 147.97140694 -11.81568886 146.47210833 -11.81369019 144.97280884 C-11.80604861 141.02389819 -11.78639572 137.07513433 -11.76428223 133.12628174 C-11.74383503 129.0978799 -11.73469089 125.06945438 -11.72460938 121.04101562 C-11.70315023 113.13469821 -11.66900807 105.22850017 -11.62695312 97.32226562 C-12.46411362 97.32448624 -13.30127411 97.32670685 -14.1638031 97.32899475 C-22.03662727 97.34899595 -29.90944295 97.36423888 -37.78228664 97.3740778 C-41.83021055 97.37930604 -45.87811353 97.38640261 -49.92602539 97.39770508 C-53.82931284 97.40853606 -57.73258011 97.4145429 -61.63588142 97.41714287 C-63.12828959 97.41899674 -64.62069661 97.42261663 -66.11309624 97.42799568 C-68.19643452 97.43520893 -70.27968844 97.43625645 -72.36303711 97.43579102 C-73.5510643 97.43801163 -74.73909149 97.44023224 -75.96311951 97.44252014 C-78.62695312 97.32226562 -78.62695312 97.32226562 -79.62695312 96.32226562 C-79.72688844 94.26171252 -79.75776218 92.19773973 -79.75976562 90.13476562 C-79.76105469 88.87921875 -79.76234375 87.62367188 -79.76367188 86.33007812 C-79.76157715 85.67297852 -79.75948242 85.01587891 -79.75732422 84.33886719 C-79.75197546 82.33065228 -79.75727004 80.32266103 -79.76367188 78.31445312 C-79.76238281 77.05890625 -79.76109375 75.80335938 -79.75976562 74.50976562 C-79.7586377 73.34832031 -79.75750977 72.186875 -79.75634766 70.99023438 C-79.62695312 68.32226562 -79.62695312 68.32226562 -78.62695312 67.32226562 C-76.5407629 67.2280879 -74.45134836 67.20483685 -72.36303711 67.20874023 C-71.38258423 67.20852119 -71.38258423 67.20852119 -70.38232422 67.20829773 C-68.21253184 67.2089968 -66.04282433 67.21678885 -63.87304688 67.22460938 C-62.37232002 67.22647358 -60.87159255 67.22789747 -59.37086487 67.22889709 C-55.41377086 67.2327221 -51.45671334 67.24255223 -47.49963379 67.25360107 C-43.46460463 67.26381557 -39.4295696 67.2683948 -35.39453125 67.2734375 C-27.47198843 67.28417452 -19.54947531 67.30125072 -11.62695312 67.32226562 C-11.63139435 66.5123819 -11.63583557 65.70249817 -11.64041138 64.86807251 C-11.68044064 57.24573965 -11.71091328 49.62345757 -11.73057747 42.00104713 C-11.74102678 38.08203279 -11.75520675 34.16310509 -11.77783203 30.24414062 C-11.79951974 26.46403524 -11.8115131 22.68401334 -11.81670761 18.90385056 C-11.82041072 17.45970723 -11.82764173 16.01556862 -11.83841324 14.57146072 C-11.85287329 12.55305668 -11.85376957 10.53456911 -11.85400391 8.51611328 C-11.85844513 7.36583649 -11.86288635 6.21555969 -11.86746216 5.03042603 C-11.27871606 -1.59892525 -5.19940667 0.03076572 0 0 Z " fill="#548008" transform="translate(166.626953125,81.677734375)"/>
<path d="M0 0 C1.485 0.99 1.485 0.99 3 2 C3.625 5.3125 3.625 5.3125 4 9 C4.31966139 10.66934283 4.64731066 12.3373217 5 14 C5.66 14 6.32 14 7 14 C7.33 16.97 7.66 19.94 8 23 C5.00555535 19.55770586 3.68628213 15.77491115 2.3125 11.5 C2.08755859 10.83613281 1.86261719 10.17226562 1.63085938 9.48828125 C0.52377024 6.11653867 0 3.5899374 0 0 Z " fill="#275208" transform="translate(22,200)"/>
<path d="M0 0 C0.66 0 1.32 0 2 0 C3.36176922 1.64351457 4.68962066 3.31522656 6 5 C9.4556234 8.63749832 13.11623708 11.83879762 17 15 C16.01 15.495 16.01 15.495 15 16 C9.49835418 11.42720347 4.41303277 6.65419824 0 1 C0 0.67 0 0.34 0 0 Z " fill="#375F1D" transform="translate(305,341)"/>
<path d="M0 0 C-0.66 1.32 -1.32 2.64 -2 4 C-2 3.34 -2 2.68 -2 2 C-3.03640625 2.44472656 -4.0728125 2.88945312 -5.140625 3.34765625 C-6.51016935 3.91986314 -7.87997488 4.49144517 -9.25 5.0625 C-10.27287109 5.50432617 -10.27287109 5.50432617 -11.31640625 5.95507812 C-15.01989395 7.48321625 -17.1840347 8.24129373 -21 7 C-17.87694627 5.82807565 -14.75125261 4.66336124 -11.625 3.5 C-10.73554688 3.16613281 -9.84609375 2.83226562 -8.9296875 2.48828125 C-8.07890625 2.17246094 -7.228125 1.85664063 -6.3515625 1.53125 C-5.17327881 1.09135742 -5.17327881 1.09135742 -3.97119141 0.64257812 C-2 0 -2 0 0 0 Z " fill="#295409" transform="translate(221,274)"/>
<path d="M0 0 C4.875 3.75 4.875 3.75 6 6 C6.40454244 11.25905171 5.66166853 14.45298292 3 19 C1.47038802 15.94077605 2.49276389 13.32521452 3 10 C3.33498301 7.33165034 3.33498301 7.33165034 3 5 C1.56249809 3.31201173 1.56249809 3.31201173 0 2 C0 1.34 0 0.68 0 0 Z " fill="#29560A" transform="translate(355,322)"/>
<path d="M0 0 C0.33 0.66 0.66 1.32 1 2 C0.34 1.67 -0.32 1.34 -1 1 C-0.67 0.67 -0.34 0.34 0 0 Z " fill="#FFFFFF" transform="translate(16,226)"/>
<path d="" fill="#FFFFFF" transform="translate(0,0)"/>
<path d="M0 0 C2 1 2 1 2 1 Z " fill="#FFFFFF" transform="translate(206,323)"/>
<path d="M0 0 C2 1 2 1 2 1 Z " fill="#FFFFFF" transform="translate(106,317)"/>
<path d="M0 0 C2 1 2 1 2 1 Z " fill="#FFFFFF" transform="translate(252,307)"/>
<path d="M0 0 C2 1 2 1 2 1 Z " fill="#FFFFFF" transform="translate(68,295)"/>
<path d="M0 0 C2 1 2 1 2 1 Z " fill="#FFFFFF" transform="translate(38,265)"/>
<path d="" fill="#FFFFFF" transform="translate(0,0)"/>
<path d="" fill="#FFFFFF" transform="translate(0,0)"/>
<path d="" fill="#FFFFFF" transform="translate(0,0)"/>
<path d="" fill="#FFFFFF" transform="translate(0,0)"/>
<path d="" fill="#FFFFFF" transform="translate(0,0)"/>
<path d="" fill="#FFFFFF" transform="translate(0,0)"/>
<path d="" fill="#FFFFFF" transform="translate(0,0)"/>
<path d="" fill="#FFFFFF" transform="translate(0,0)"/>
<path d="" fill="#FFFFFF" transform="translate(0,0)"/>
<path d="" fill="#FFFFFF" transform="translate(0,0)"/>
<path d="" fill="#FFFFFF" transform="translate(0,0)"/>
<path d="" fill="#FFFFFF" transform="translate(0,0)"/>
<path d="" fill="#FFFFFF" transform="translate(0,0)"/>
<path d="" fill="#FFFFFF" transform="translate(0,0)"/>
<path d="" fill="#FFFFFF" transform="translate(0,0)"/>
<path d="" fill="#FFFFFF" transform="translate(0,0)"/>
<path d="" fill="#FFFFFF" transform="translate(0,0)"/>
<path d="" fill="#FFFFFF" transform="translate(0,0)"/>
<path d="" fill="#FFFFFF" transform="translate(0,0)"/>
<path d="" fill="#FFFFFF" transform="translate(0,0)"/>
<path d="" fill="#FFFFFF" transform="translate(0,0)"/>
<path d="" fill="#FFFFFF" transform="translate(0,0)"/>
<path d="" fill="#FFFFFF" transform="translate(0,0)"/>
<path d="" fill="#FFFFFF" transform="translate(0,0)"/>
<path d="" fill="#FFFFFF" transform="translate(0,0)"/>
<path d="" fill="#FFFFFF" transform="translate(0,0)"/>
<path d="" fill="#FFFFFF" transform="translate(0,0)"/>
<path d="" fill="#FFFFFF" transform="translate(0,0)"/>
<path d="" fill="#FFFFFF" transform="translate(0,0)"/>
<path d="" fill="#FFFFFF" transform="translate(0,0)"/>
<path d="" fill="#FFFFFF" transform="translate(0,0)"/>
<path d="" fill="#FFFFFF" transform="translate(0,0)"/>
<path d="" fill="#FFFFFF" transform="translate(0,0)"/>
<path d="" fill="#FFFFFF" transform="translate(0,0)"/>
<path d="" fill="#FFFFFF" transform="translate(0,0)"/>
<path d="" fill="#FFFFFF" transform="translate(0,0)"/>
<path d="" fill="#FFFFFF" transform="translate(0,0)"/>
<path d="" fill="#FFFFFF" transform="translate(0,0)"/>
<path d="" fill="#FFFFFF" transform="translate(0,0)"/>
<path d="" fill="#FFFFFF" transform="translate(0,0)"/>
<path d="" fill="#FFFFFF" transform="translate(0,0)"/>
<path d="" fill="#FFFFFF" transform="translate(0,0)"/>
<path d="" fill="#FFFFFF" transform="translate(0,0)"/>
<path d="" fill="#FFFFFF" transform="translate(0,0)"/>
<path d="" fill="#FFFFFF" transform="translate(0,0)"/>
<path d="" fill="#FFFFFF" transform="translate(0,0)"/>
<path d="" fill="#FFFFFF" transform="translate(0,0)"/>
<path d="" fill="#FFFFFF" transform="translate(0,0)"/>
<path d="" fill="#FFFFFF" transform="translate(0,0)"/>
<path d="" fill="#FFFFFF" transform="translate(0,0)"/>
<path d="" fill="#FFFFFF" transform="translate(0,0)"/>
<path d="" fill="#FFFFFF" transform="translate(0,0)"/>
<path d="" fill="#FFFFFF" transform="translate(0,0)"/>
<path d="" fill="#FFFFFF" transform="translate(0,0)"/>
<path d="" fill="#FFFFFF" transform="translate(0,0)"/>
<path d="" fill="#FFFFFF" transform="translate(0,0)"/>
<path d="" fill="#FFFFFF" transform="translate(0,0)"/>
<path d="" fill="#FFFFFF" transform="translate(0,0)"/>
<path d="" fill="#FFFFFF" transform="translate(0,0)"/>
<path d="" fill="#FFFFFF" transform="translate(0,0)"/>
<path d="" fill="#FFFFFF" transform="translate(0,0)"/>
<path d="" fill="#FFFFFF" transform="translate(0,0)"/>
<path d="" fill="#FFFFFF" transform="translate(0,0)"/>
<path d="" fill="#FFFFFF" transform="translate(0,0)"/>
<path d="" fill="#FFFFFF" transform="translate(0,0)"/>
<path d="" fill="#FFFFFF" transform="translate(0,0)"/>
<path d="" fill="#FFFFFF" transform="translate(0,0)"/>
<path d="" fill="#FFFFFF" transform="translate(0,0)"/>
</svg>
