<?xml version="1.0" encoding="UTF-8"?>
<svg version="1.1" xmlns="http://www.w3.org/2000/svg" width="329" height="378">
<path d="M0 0 C0.71800781 0.144375 1.43601562 0.28875 2.17578125 0.4375 C5.26370352 1.05252186 8.04312073 1.06249698 11.1875 1 C16.77935943 0.88967972 16.77935943 0.88967972 19 2 C19.33 1.34 19.66 0.68 20 0 C20 0.66 20 1.32 20 2 C21.04607422 1.92998779 22.09214844 1.85997559 23.16992188 1.7878418 C40.78262117 0.73066115 58.41266028 0.81252367 76.04980469 0.81469727 C80.60934412 0.8147996 85.16873036 0.80103634 89.72823334 0.78392506 C93.28874396 0.77274138 96.84921789 0.77077984 100.40974426 0.77130699 C102.09040362 0.77014075 103.77106437 0.76579697 105.45170593 0.75797462 C137.31661814 0.62325857 137.31661814 0.62325857 149.34375 12.26953125 C152.07099126 15.07297484 154.7394091 17.92332554 157.375 20.8125 C157.85759277 21.34020996 158.34018555 21.86791992 158.83740234 22.41162109 C162.02342906 25.90463199 165.16025223 29.43598463 168.2578125 33.0078125 C170.31500399 35.36020635 172.40596915 37.68034966 174.5 40 C177.76390848 43.61676345 180.98790949 47.26389608 184.1875 50.9375 C186.27211164 53.30964429 188.38428644 55.65556065 190.5 58 C195.34332863 63.37243176 200.11754288 68.79709178 204.8203125 74.29296875 C205.32852539 74.8866626 205.83673828 75.48035645 206.36035156 76.09204102 C207.41100738 77.32143843 208.45984052 78.55239588 209.50683594 79.78491211 C212.99358073 83.87716259 216.59206824 87.82511829 220.37890625 91.64453125 C224.61028051 97.79276903 225.44312066 104.70338423 225.38095093 111.99172974 C225.3856309 112.85046562 225.39031087 113.70920151 225.39513266 114.59395969 C225.40701718 117.44707825 225.39765098 120.29971063 225.38818359 123.15283203 C225.39225238 125.20861591 225.39759599 127.2643976 225.40411377 129.32017517 C225.41776169 134.8887084 225.41249771 140.45707439 225.40297651 146.02561045 C225.39536073 151.86822351 225.40243142 157.71082263 225.40713501 163.55343628 C225.41258956 173.37028562 225.4054115 183.18706721 225.39111328 193.00390625 C225.37481468 204.32426502 225.38005624 215.64446143 225.3965925 226.96481621 C225.41024854 236.7061422 225.41210613 246.44741957 225.40427649 256.18875206 C225.39961905 261.99679398 225.39892118 267.80475986 225.40888596 273.61279678 C225.41761241 279.0810478 225.41143081 284.54909176 225.39420319 290.01732063 C225.39026731 292.01382035 225.39132205 294.01033776 225.39799118 296.00683022 C225.46038321 316.59851172 223.09125088 333.87839684 209 350 C208.17822266 350.99773437 208.17822266 350.99773437 207.33984375 352.015625 C195.25948019 365.50315179 177.23693925 370.32651554 160 373 C160 373.33 160 373.66 160 374 C130.63 374 101.26 374 71 374 C71 373.67 71 373.34 71 373 C70.45299187 372.99761165 69.90598373 372.99522329 69.3423996 372.99276257 C55.95930663 372.93331995 42.57639147 372.85740408 29.19348907 372.76428509 C22.72129077 372.71973714 16.24915317 372.68044728 9.77685547 372.65356445 C3.51973434 372.6273754 -2.73715123 372.5868645 -8.99412537 372.53681374 C-11.37004139 372.5202499 -13.74599805 372.50867088 -16.1219635 372.50238609 C-31.98662204 372.45621359 -46.75317449 371.79241736 -61.88671875 366.55078125 C-64.32157611 365.91618811 -66.49433724 365.90784778 -69 366 C-68.34 365.01 -67.68 364.02 -67 363 C-67.6290625 362.59910156 -68.258125 362.19820313 -68.90625 361.78515625 C-82.48267635 352.76828273 -90.66504626 340.91255483 -93.97614402 324.90219271 C-95.92923854 314.13202789 -95.40826295 303.07831165 -95.37231445 292.17724609 C-95.37474604 289.58532058 -95.37846891 286.99339601 -95.38337708 284.401474 C-95.39280569 278.12457681 -95.38631808 271.8477956 -95.37411413 265.5709071 C-95.36040885 258.24565275 -95.36213942 250.92042519 -95.36424746 243.59516127 C-95.36742857 230.51751878 -95.35581949 217.43993097 -95.33618164 204.36230469 C-95.31717348 191.7005039 -95.31009725 179.03876716 -95.31567383 166.37695312 C-95.32174408 152.55356813 -95.32153237 138.7302112 -95.310188 124.90682852 C-95.30898083 123.43040506 -95.30777485 121.9539816 -95.30657005 120.47755814 C-95.30596651 119.75132299 -95.30536298 119.02508784 -95.30474115 118.27684557 C-95.30087722 113.18220425 -95.30124965 108.08757344 -95.3031559 102.99293137 C-95.30551076 96.12604773 -95.29688211 89.25924714 -95.2810955 82.39238167 C-95.2768694 79.8790184 -95.27599077 77.36564683 -95.27878571 74.85228157 C-95.29982321 52.54264049 -95.06620568 33.26769408 -79.125 15.96484375 C-73.73820308 10.85860917 -65.60970546 5 -58 5 C-57.67 4.34 -57.34 3.68 -57 3 C-54.37227122 2.50235183 -51.84568368 2.14766778 -49.19140625 1.87890625 C-47.98805382 1.75184044 -47.98805382 1.75184044 -46.76039124 1.62220764 C-37.48783855 0.73071192 -28.24168786 0.81421209 -18.9375 0.9375 C-16.35820879 0.96518771 -13.77897108 0.98977872 -11.19960022 1.00868225 C-9.61477995 1.02089199 -8.0299896 1.03844895 -6.44529724 1.06199646 C-4.63015894 1.07886846 -2.8146649 1.04475541 -1 1 C-0.67 0.67 -0.34 0.34 0 0 Z " fill="#578209" transform="translate(101,3)"/>
<path d="M0 0 C0.71800781 0.144375 1.43601562 0.28875 2.17578125 0.4375 C5.26370352 1.05252186 8.04312073 1.06249698 11.1875 1 C16.77935943 0.88967972 16.77935943 0.88967972 19 2 C19.33 1.34 19.66 0.68 20 0 C20 0.66 20 1.32 20 2 C21.04607422 1.92998779 22.09214844 1.85997559 23.16992188 1.7878418 C40.78262117 0.73066115 58.41266028 0.81252367 76.04980469 0.81469727 C80.60934412 0.8147996 85.16873036 0.80103634 89.72823334 0.78392506 C93.28874396 0.77274138 96.84921789 0.77077984 100.40974426 0.77130699 C102.09040362 0.77014075 103.77106437 0.76579697 105.45170593 0.75797462 C137.31661814 0.62325857 137.31661814 0.62325857 149.34375 12.26953125 C152.07099126 15.07297484 154.7394091 17.92332554 157.375 20.8125 C157.85759277 21.34020996 158.34018555 21.86791992 158.83740234 22.41162109 C162.02342906 25.90463199 165.16025223 29.43598463 168.2578125 33.0078125 C170.31500399 35.36020635 172.40596915 37.68034966 174.5 40 C177.76390848 43.61676345 180.98790949 47.26389608 184.1875 50.9375 C186.27211164 53.30964429 188.38428644 55.65556065 190.5 58 C195.34332863 63.37243176 200.11754288 68.79709178 204.8203125 74.29296875 C205.32852539 74.8866626 205.83673828 75.48035645 206.36035156 76.09204102 C207.41100738 77.32143843 208.45984052 78.55239588 209.50683594 79.78491211 C212.99358073 83.87716259 216.59206824 87.82511829 220.37890625 91.64453125 C224.61028051 97.79276903 225.44312066 104.70338423 225.38095093 111.99172974 C225.3856309 112.85046562 225.39031087 113.70920151 225.39513266 114.59395969 C225.40701718 117.44707825 225.39765098 120.29971063 225.38818359 123.15283203 C225.39225238 125.20861591 225.39759599 127.2643976 225.40411377 129.32017517 C225.41776169 134.8887084 225.41249771 140.45707439 225.40297651 146.02561045 C225.39536073 151.86822351 225.40243142 157.71082263 225.40713501 163.55343628 C225.41258956 173.37028562 225.4054115 183.18706721 225.39111328 193.00390625 C225.37481468 204.32426502 225.38005624 215.64446143 225.3965925 226.96481621 C225.41024854 236.7061422 225.41210613 246.44741957 225.40427649 256.18875206 C225.39961905 261.99679398 225.39892118 267.80475986 225.40888596 273.61279678 C225.41761241 279.0810478 225.41143081 284.54909176 225.39420319 290.01732063 C225.39026731 292.01382035 225.39132205 294.01033776 225.39799118 296.00683022 C225.46038321 316.59851172 223.09125088 333.87839684 209 350 C208.17822266 350.99773437 208.17822266 350.99773437 207.33984375 352.015625 C195.25948019 365.50315179 177.23693925 370.32651554 160 373 C160 373.33 160 373.66 160 374 C130.63 374 101.26 374 71 374 C71 373.67 71 373.34 71 373 C70.45299187 372.99761165 69.90598373 372.99522329 69.3423996 372.99276257 C55.95930663 372.93331995 42.57639147 372.85740408 29.19348907 372.76428509 C22.72129077 372.71973714 16.24915317 372.68044728 9.77685547 372.65356445 C3.51973434 372.6273754 -2.73715123 372.5868645 -8.99412537 372.53681374 C-11.37004139 372.5202499 -13.74599805 372.50867088 -16.1219635 372.50238609 C-31.98662204 372.45621359 -46.75317449 371.79241736 -61.88671875 366.55078125 C-64.32157611 365.91618811 -66.49433724 365.90784778 -69 366 C-68.34 365.01 -67.68 364.02 -67 363 C-67.6290625 362.59910156 -68.258125 362.19820313 -68.90625 361.78515625 C-82.48267635 352.76828273 -90.66504626 340.91255483 -93.97614402 324.90219271 C-95.92923854 314.13202789 -95.40826295 303.07831165 -95.37231445 292.17724609 C-95.37474604 289.58532058 -95.37846891 286.99339601 -95.38337708 284.401474 C-95.39280569 278.12457681 -95.38631808 271.8477956 -95.37411413 265.5709071 C-95.36040885 258.24565275 -95.36213942 250.92042519 -95.36424746 243.59516127 C-95.36742857 230.51751878 -95.35581949 217.43993097 -95.33618164 204.36230469 C-95.31717348 191.7005039 -95.31009725 179.03876716 -95.31567383 166.37695312 C-95.32174408 152.55356813 -95.32153237 138.7302112 -95.310188 124.90682852 C-95.30898083 123.43040506 -95.30777485 121.9539816 -95.30657005 120.47755814 C-95.30596651 119.75132299 -95.30536298 119.02508784 -95.30474115 118.27684557 C-95.30087722 113.18220425 -95.30124965 108.08757344 -95.3031559 102.99293137 C-95.30551076 96.12604773 -95.29688211 89.25924714 -95.2810955 82.39238167 C-95.2768694 79.8790184 -95.27599077 77.36564683 -95.27878571 74.85228157 C-95.29982321 52.54264049 -95.06620568 33.26769408 -79.125 15.96484375 C-73.73820308 10.85860917 -65.60970546 5 -58 5 C-57.67 4.34 -57.34 3.68 -57 3 C-54.37227122 2.50235183 -51.84568368 2.14766778 -49.19140625 1.87890625 C-47.98805382 1.75184044 -47.98805382 1.75184044 -46.76039124 1.62220764 C-37.48783855 0.73071192 -28.24168786 0.81421209 -18.9375 0.9375 C-16.35820879 0.96518771 -13.77897108 0.98977872 -11.19960022 1.00868225 C-9.61477995 1.02089199 -8.0299896 1.03844895 -6.44529724 1.06199646 C-4.63015894 1.07886846 -2.8146649 1.04475541 -1 1 C-0.67 0.67 -0.34 0.34 0 0 Z M-73.3125 27.125 C-80.37193631 35.82147807 -82.75366462 44.94381188 -82.62145996 55.96768188 C-82.62784878 57.11019043 -82.6342376 58.25269898 -82.64082003 59.429829 C-82.65597535 63.22523231 -82.63567011 67.01957587 -82.61523438 70.81494141 C-82.61597243 73.54923516 -82.62420441 76.28349513 -82.63204956 79.01777649 C-82.64651951 85.65309568 -82.63440025 92.28810714 -82.61293632 98.92339708 C-82.58883517 106.66000774 -82.59064622 114.39654926 -82.59324223 122.13318913 C-82.59692615 135.94139543 -82.57615976 149.74945742 -82.54199219 163.55761719 C-82.50889201 176.93949021 -82.49473682 190.32121187 -82.50097656 203.703125 C-82.50774837 218.29776238 -82.50525891 232.89233652 -82.48561716 247.48696458 C-82.48457768 248.25946434 -82.48353819 249.03196409 -82.4824672 249.82787292 C-82.48037641 251.37913154 -82.47826544 252.93039013 -82.47613403 254.48164869 C-82.46925418 259.86771119 -82.46856648 265.25375413 -82.47001648 270.6398201 C-82.47145967 277.20677342 -82.46170176 283.77360376 -82.43807012 290.34051634 C-82.42625211 293.6876703 -82.42066973 297.03451009 -82.42490768 300.38170433 C-82.42863177 304.01675935 -82.41384164 307.65129077 -82.39440918 311.2862854 C-82.39973711 312.33454612 -82.40506503 313.38280685 -82.41055441 314.46283305 C-82.30136832 326.33040475 -78.82098962 336.58669916 -70.7734375 345.453125 C-55.87687572 359.73490804 -36.98105712 360.45862223 -17.48291016 360.38818359 C-15.56741539 360.39225852 -13.65192298 360.39760552 -11.73643494 360.40411377 C-6.57719575 360.41768557 -1.41813835 360.41253047 3.74110365 360.40297651 C9.16901063 360.39532477 14.59690313 360.40244092 20.02481079 360.40713501 C29.13831342 360.41257754 38.25174288 360.40544149 47.36523438 360.39111328 C57.86202886 360.37479953 68.35864836 360.38007215 78.85543859 360.3965925 C87.90732697 360.41026208 96.95916307 360.41210012 106.01105845 360.40427649 C111.3998918 360.39962866 116.78864326 360.39889452 122.17747116 360.40888596 C127.24855817 360.41763308 132.31942249 360.41139418 137.39048576 360.39420319 C139.23779495 360.39027888 141.0851233 360.39130154 142.93242455 360.39799118 C163.13369832 360.46432976 182.11447886 358.73816959 198 345 C209.45897213 333.02310823 213.18102803 318.41123294 213.12025452 302.25537109 C213.12110894 301.41140746 213.12196337 300.56744383 213.12284368 299.69790554 C213.12448161 296.88972745 213.11900491 294.08161002 213.11352539 291.2734375 C213.11324313 289.25257875 213.11340202 287.2317199 213.1139679 285.21086121 C213.11425435 279.73835995 213.10838219 274.2658807 213.10139394 268.79338455 C213.09513508 263.06920738 213.0945546 257.34502968 213.09336853 251.62084961 C213.09026268 240.78736678 213.08205935 229.95389407 213.07201904 219.12041569 C213.06083473 206.78431146 213.05534161 194.44820674 213.05032361 182.11209869 C213.03987612 156.74139353 213.02229113 131.37069733 213 106 C212.14524078 105.99635437 211.29048157 105.99270874 210.40982056 105.98895264 C202.31882787 105.95094374 194.228233 105.89394577 186.13752174 105.81609726 C181.97887313 105.77673977 177.82043253 105.7444943 173.66162109 105.72900391 C169.64130886 105.71375933 165.62156897 105.67917783 161.60151291 105.63169098 C160.0747312 105.61695699 158.54786773 105.60896361 157.02101517 105.60811615 C144.66391735 105.59437103 134.17745601 103.90173845 125 95 C119.29677037 88.05473369 116.7870435 81.29221889 116.68115234 72.23852539 C116.65134781 70.28729515 116.65134781 70.28729515 116.62094116 68.29664612 C116.60906831 66.89698455 116.59740525 65.49732119 116.5859375 64.09765625 C116.56720508 62.65033388 116.54763015 61.20302219 116.5272522 59.75572205 C116.47614374 55.96648485 116.4364049 52.17721234 116.39910889 48.38781738 C116.35893494 44.51301488 116.30790402 40.63835661 116.2578125 36.76367188 C116.16130564 29.17588057 116.07682108 21.58801887 116 14 C94.95471245 13.92979684 73.90944432 13.87695653 52.86406326 13.84456348 C43.0914645 13.82912043 33.31893866 13.80808007 23.54638672 13.77368164 C15.02473517 13.74370065 6.50313646 13.72440639 -2.01856637 13.71773452 C-6.52721212 13.71383695 -11.03570676 13.70473097 -15.54430389 13.68280983 C-19.79601587 13.66230698 -24.04751581 13.65619382 -28.29927254 13.66067696 C-29.85197417 13.65985788 -31.40468357 13.65397493 -32.95734215 13.64238358 C-48.50161823 13.53212094 -62.07680208 15.5322799 -73.3125 27.125 Z " fill="#FAFBF9" transform="translate(101,3)"/>
<path d="M0 0 C49.41420118 0 49.41420118 0 61 11 C63.42804103 13.82582647 65.28831052 16.69525299 67 20 C67.33902344 20.64066406 67.67804688 21.28132813 68.02734375 21.94140625 C72.5733926 32.64661806 71.1764647 48.45639665 67 59 C62.45045131 68.14161654 55.51195866 73.14303553 46.37109375 77.23828125 C32.71573405 81.62509368 9.90610383 79 0 79 C0 52.93 0 26.86 0 0 Z " fill="#FBFCFA" transform="translate(140,188)"/>
<path d="M0 0 C47.17474811 0 47.17474811 0 55.59765625 8.17578125 C59.76198626 13.5928902 61.69558872 19.98142527 61.3125 26.78125 C60.19251325 34.73315596 57.18462177 40.75316157 51 46 C45.67008879 49.10986387 40.09429454 51.14465375 33.890625 51.09765625 C32.8701709 51.09390991 32.8701709 51.09390991 31.82910156 51.09008789 C30.55244629 51.07643188 30.55244629 51.07643188 29.25 51.0625 C26.5275 51.041875 23.805 51.02125 21 51 C21 60.24 21 69.48 21 79 C14.07 79 7.14 79 0 79 C0 52.93 0 26.86 0 0 Z " fill="#FCFDFA" transform="translate(67,188)"/>
<path d="M0 0 C15.56427388 1.97732677 27.91465072 21.67324654 37.69921875 33.171875 C43.0988015 39.50890974 48.55297848 45.76922445 54.20605469 51.88183594 C57.23420702 55.15628679 60.18748122 58.48309873 63.10546875 61.85546875 C66.10271432 65.24822714 69.18424745 68.56420202 72.26953125 71.87695312 C74.39613589 74.17574025 76.25772382 76.38658573 78 79 C70.35032593 79.07642165 62.70075131 79.12875549 55.05078125 79.16479492 C52.45145997 79.17982831 49.85216383 79.20026046 47.25292969 79.22631836 C43.50449395 79.26294101 39.75639528 79.27978152 36.0078125 79.29296875 C34.28064499 79.31619453 34.28064499 79.31619453 32.51858521 79.33988953 C23.08601468 79.34183189 14.51402292 78.11606517 7 72 C2.04918152 66.88369455 -0.25614014 63.01047407 -0.22705078 55.85449219 C-0.22689972 54.61350769 -0.22674866 53.37252319 -0.22659302 52.09393311 C-0.21638061 50.7449121 -0.20594864 49.39589273 -0.1953125 48.046875 C-0.19158049 46.6625387 -0.18873441 45.27819975 -0.18673706 43.89385986 C-0.17911534 40.2573309 -0.15947955 36.62096269 -0.1373291 32.98449707 C-0.11683909 29.27093683 -0.10772861 25.55735052 -0.09765625 21.84375 C-0.07623215 14.56242686 -0.04211401 7.28123599 0 0 Z " fill="#558008" transform="translate(230,18)"/>
<path d="M0 0 C17.16 0 34.32 0 52 0 C52 5.28 52 10.56 52 16 C41.44 16 30.88 16 20 16 C20 22.6 20 29.2 20 36 C29.24 36 38.48 36 48 36 C48 40.95 48 45.9 48 51 C38.76 51 29.52 51 20 51 C20 60.24 20 69.48 20 79 C13.4 79 6.8 79 0 79 C0 52.93 0 26.86 0 0 Z " fill="#FDFEFD" transform="translate(223,188)"/>
<path d="M0 0 C14 0 14 0 20 3 C25.68943407 8.94804471 27.37901112 13.68199031 27.3125 21.8125 C27.30686035 22.52446533 27.3012207 23.23643066 27.29541016 23.9699707 C27.13153721 31.05301356 26.33010769 35.56151521 21.3125 40.8125 C13.92785323 45.68915353 9.39465048 46 0 46 C0 30.82 0 15.64 0 0 Z " fill="#507C08" transform="translate(161,205)"/>
<path d="M0 0 C11.71428571 0 11.71428571 0 16 3 C18.42271271 5.97332924 18.36802292 9.27798154 18.2421875 13.0390625 C17.86618632 16.08345915 17.0336431 17.70395134 15 20 C9.41844445 23.17382571 6.83854896 23 0 23 C0 15.41 0 7.82 0 0 Z " fill="#4A7508" transform="translate(88,202)"/>
<path d="M0 0 C1.08839774 0.88967344 2.17044608 1.78711574 3.25 2.6875 C3.85328125 3.18636719 4.4565625 3.68523437 5.078125 4.19921875 C7.31020093 6.29065575 9.10976837 8.59940583 11 11 C4.77038023 11.05059881 -1.4591868 11.08569062 -7.68896484 11.10986328 C-9.8094277 11.11993751 -11.92987661 11.13359733 -14.05029297 11.15087891 C-17.09345943 11.17506489 -20.13644266 11.18646869 -23.1796875 11.1953125 C-24.60787308 11.21079636 -24.60787308 11.21079636 -26.06491089 11.22659302 C-26.94567291 11.22674408 -27.82643494 11.22689514 -28.73388672 11.22705078 C-29.51110077 11.231492 -30.28831482 11.23593323 -31.08908081 11.24050903 C-33 11 -33 11 -35 9 C-21.47 8.67 -7.94 8.34 6 8 C4.02 6.02 2.04 4.04 0 2 C0 1.34 0 0.68 0 0 Z " fill="#2B5D04" transform="translate(297,86)"/>
<path d="M0 0 C0 5.28 0 10.56 0 16 C-0.66 16.33 -1.32 16.66 -2 17 C-2 11.72 -2 6.44 -2 1 C-11.24 1 -20.48 1 -30 1 C-30 0.67 -30 0.34 -30 0 C-26.04924621 -0.16755938 -22.09827679 -0.3281242 -18.14697266 -0.48217773 C-16.14079929 -0.56187238 -14.13484924 -0.64712518 -12.12890625 -0.73242188 C-10.87207031 -0.78076172 -9.61523438 -0.82910156 -8.3203125 -0.87890625 C-6.57645264 -0.94960327 -6.57645264 -0.94960327 -4.79736328 -1.02172852 C-2 -1 -2 -1 0 0 Z " fill="#527A1B" transform="translate(273,223)"/>
<path d="M0 0 C0.33 0.66 0.66 1.32 1 2 C3.52733235 2.65555119 3.52733235 2.65555119 6 3 C5.01 4.485 5.01 4.485 4 6 C9.3644353 10.66773607 9.3644353 10.66773607 15 15 C10.96443369 14.47178451 8.82287252 13.40673398 5.8125 10.6875 C5.13832031 10.09324219 4.46414062 9.49898437 3.76953125 8.88671875 C1.0399922 5.97641552 0 4.00832333 0 0 Z " fill="#265406" transform="translate(231,79)"/>
<path d="M0 0 C3.63 0.33 7.26 0.66 11 1 C11 1.66 11 2.32 11 3 C11.7425 3.2475 12.485 3.495 13.25 3.75 C16.20124062 5.09147301 17.84814974 6.60905526 20 9 C16.80597022 7.76360138 13.68156679 6.41200997 10.5625 5 C7.09659439 3.44671789 3.63469535 2.1183678 0 1 C0 0.67 0 0.34 0 0 Z " fill="#2D580F" transform="translate(179,188)"/>
<path d="M0 0 C0 3 0 3 -2 5.1875 C-2.66 5.785625 -3.32 6.38375 -4 7 C-4.99 6.67 -5.98 6.34 -7 6 C-4.69 4.02 -2.38 2.04 0 0 Z " fill="#2C5A06" transform="translate(202,254)"/>
<path d="M0 0 C4.95 0 9.9 0 15 0 C15 0.33 15 0.66 15 1 C10.05 1 5.1 1 0 1 C0 0.67 0 0.34 0 0 Z " fill="#FFFFFF" transform="translate(145,376)"/>
<path d="M0 0 C4.95 0 9.9 0 15 0 C15 0.33 15 0.66 15 1 C10.05 1 5.1 1 0 1 C0 0.67 0 0.34 0 0 Z " fill="#FFFFFF" transform="translate(126,376)"/>
<path d="M0 0 C4.95 0 9.9 0 15 0 C15 0.33 15 0.66 15 1 C10.05 1 5.1 1 0 1 C0 0.67 0 0.34 0 0 Z " fill="#FFFFFF" transform="translate(110,376)"/>
<path d="M0 0 C4.95 0 9.9 0 15 0 C15 0.33 15 0.66 15 1 C10.05 1 5.1 1 0 1 C0 0.67 0 0.34 0 0 Z " fill="#FFFFFF" transform="translate(94,376)"/>
<path d="M0 0 C3.3 0 6.6 0 10 0 C10 0.33 10 0.66 10 1 C6.7 1 3.4 1 0 1 C0 0.67 0 0.34 0 0 Z " fill="#FFFFF9" transform="translate(78,376)"/>
<path d="M0 0 C2.31 0 4.62 0 7 0 C7 0.33 7 0.66 7 1 C4.69 1 2.38 1 0 1 C0 0.67 0 0.34 0 0 Z " fill="#FFFFFF" transform="translate(70,376)"/>
<path d="M0 0 C0.99 1.485 0.99 1.485 2 3 C1.34 3 0.68 3 0 3 C0 2.01 0 1.02 0 0 Z " fill="#FFFFFF" transform="translate(10,342)"/>
<path d="M0 0 C2 1 2 1 2 1 Z " fill="#FFFFFF" transform="translate(166,376)"/>
<path d="M0 0 C2 1 2 1 2 1 Z " fill="#FFFFFF" transform="translate(161,376)"/>
<path d="M0 0 C2 1 2 1 2 1 Z " fill="#FFFFFF" transform="translate(142,376)"/>
<path d="M0 0 C2 1 2 1 2 1 Z " fill="#FFFFFF" transform="translate(89,376)"/>
<path d="M0 0 C2 1 2 1 2 1 Z " fill="#FFFFFF" transform="translate(55,375)"/>
<path d="M0 0 C2 1 2 1 2 1 Z " fill="#FFFFFF" transform="translate(272,374)"/>
<path d="M0 0 C2 1 2 1 2 1 Z " fill="#FFFFFF" transform="translate(47,373)"/>
<path d="M0 0 C2 1 2 1 2 1 Z " fill="#FFFFFF" transform="translate(31,366)"/>
<path d="" fill="#FFFFFF" transform="translate(0,0)"/>
<path d="" fill="#FFFFFF" transform="translate(0,0)"/>
<path d="" fill="#FFFFFF" transform="translate(0,0)"/>
<path d="" fill="#FFFFFF" transform="translate(0,0)"/>
<path d="" fill="#FFFFFF" transform="translate(0,0)"/>
<path d="" fill="#FFFFFF" transform="translate(0,0)"/>
<path d="" fill="#FFFFFF" transform="translate(0,0)"/>
<path d="" fill="#FFFFFF" transform="translate(0,0)"/>
<path d="" fill="#FFFFFF" transform="translate(0,0)"/>
<path d="" fill="#FFFFFF" transform="translate(0,0)"/>
<path d="" fill="#FFFFFF" transform="translate(0,0)"/>
<path d="" fill="#FFFFFF" transform="translate(0,0)"/>
<path d="" fill="#FFFFFF" transform="translate(0,0)"/>
<path d="" fill="#FFFFFF" transform="translate(0,0)"/>
<path d="" fill="#FFFFFF" transform="translate(0,0)"/>
<path d="" fill="#FFFFFF" transform="translate(0,0)"/>
<path d="" fill="#FFFFFF" transform="translate(0,0)"/>
<path d="" fill="#FFFFFF" transform="translate(0,0)"/>
<path d="" fill="#FFFFFF" transform="translate(0,0)"/>
<path d="" fill="#FFFFFF" transform="translate(0,0)"/>
<path d="" fill="#FFFFFF" transform="translate(0,0)"/>
<path d="" fill="#FFFFFF" transform="translate(0,0)"/>
<path d="" fill="#FFFFFF" transform="translate(0,0)"/>
<path d="" fill="#FFFFFF" transform="translate(0,0)"/>
<path d="" fill="#FFFFFF" transform="translate(0,0)"/>
<path d="" fill="#FFFFFF" transform="translate(0,0)"/>
<path d="" fill="#FFFFFF" transform="translate(0,0)"/>
<path d="" fill="#FFFFFF" transform="translate(0,0)"/>
<path d="" fill="#FFFFFF" transform="translate(0,0)"/>
<path d="" fill="#FFFFFF" transform="translate(0,0)"/>
<path d="" fill="#FFFFFF" transform="translate(0,0)"/>
<path d="" fill="#FFFFFF" transform="translate(0,0)"/>
<path d="" fill="#FFFFFF" transform="translate(0,0)"/>
<path d="" fill="#FFFFFF" transform="translate(0,0)"/>
<path d="" fill="#FFFFFF" transform="translate(0,0)"/>
<path d="" fill="#FFFFFF" transform="translate(0,0)"/>
<path d="" fill="#FFFFFF" transform="translate(0,0)"/>
<path d="" fill="#FFFFFF" transform="translate(0,0)"/>
<path d="" fill="#FFFFFF" transform="translate(0,0)"/>
<path d="" fill="#FFFFFF" transform="translate(0,0)"/>
<path d="" fill="#FFFFFF" transform="translate(0,0)"/>
<path d="" fill="#FFFFFF" transform="translate(0,0)"/>
<path d="" fill="#FFFFFF" transform="translate(0,0)"/>
<path d="" fill="#FFFFFF" transform="translate(0,0)"/>
<path d="" fill="#FFFFFF" transform="translate(0,0)"/>
<path d="" fill="#FFFFFF" transform="translate(0,0)"/>
<path d="" fill="#FFFFFF" transform="translate(0,0)"/>
<path d="" fill="#FFFFFF" transform="translate(0,0)"/>
<path d="" fill="#FFFFFF" transform="translate(0,0)"/>
<path d="" fill="#FFFFFF" transform="translate(0,0)"/>
<path d="" fill="#FFFFFF" transform="translate(0,0)"/>
<path d="" fill="#FFFFFF" transform="translate(0,0)"/>
<path d="" fill="#FFFFFF" transform="translate(0,0)"/>
<path d="" fill="#FFFFFF" transform="translate(0,0)"/>
<path d="" fill="#FFFFFF" transform="translate(0,0)"/>
<path d="" fill="#FFFFFF" transform="translate(0,0)"/>
</svg>
