<?xml version="1.0" encoding="UTF-8"?>
<svg version="1.1" xmlns="http://www.w3.org/2000/svg" width="352" height="343">
<path d="M0 0 C13.47581783 0.52759369 26.92624993 0.61174025 40.41078949 0.54948235 C44.39961741 0.53165611 48.38840176 0.52144381 52.3772583 0.51356506 C63.69409151 0.48983233 75.01086706 0.45343693 86.32763672 0.40893555 C92.6345391 0.38421884 98.94142083 0.36696722 105.24836469 0.35737616 C108.5572855 0.35197771 111.8660683 0.34156981 115.17494965 0.32398796 C143.31998411 0.17549349 168.8754835 1.27191758 190.44384766 21.84863281 C204.19404564 36.27785291 211.72412351 54.33702742 212.56616211 74.11230469 C212.6053819 74.99471077 212.64460169 75.87711685 212.68500996 76.78626251 C213.27018611 92.00340946 213.1401358 107.24674361 213.14235473 122.47246742 C213.14307303 125.24921996 213.14522169 128.02596777 213.14785194 130.80271912 C213.15705383 140.53335883 213.16119292 150.26398499 213.16040039 159.99462891 C213.15979942 168.99749633 213.17036852 178.00030389 213.18614405 187.00315619 C213.1993004 194.79492897 213.20458099 202.58668235 213.20394498 210.37846613 C213.20369258 215.00497212 213.20639961 219.63142461 213.21712303 224.25791931 C213.36098966 291.116866 213.36098966 291.116866 192.40087891 313.13378906 C179.62169046 325.62487987 165.45082649 332.96060849 147.97509766 336.50488281 C147.1569458 336.6749585 146.33879395 336.84503418 145.49584961 337.02026367 C137.26513482 338.57777144 129.37714526 338.68583971 121.02197266 338.48144531 C119.6266658 338.45520002 118.2313401 338.42993966 116.83599854 338.40560913 C113.20599053 338.33972193 109.57639071 338.26067474 105.94671631 338.1786499 C102.22586445 338.09697292 98.50477692 338.02806751 94.78369141 337.95800781 C87.51387477 337.81929039 80.24444219 337.66663499 72.97509766 337.50488281 C72.64509766 338.16488281 72.31509766 338.82488281 71.97509766 339.50488281 C71.97509766 338.84488281 71.97509766 338.18488281 71.97509766 337.50488281 C43.59509766 337.83488281 15.21509766 338.16488281 -14.02490234 338.50488281 C-14.02490234 338.83488281 -14.02490234 339.16488281 -14.02490234 339.50488281 C-18.97490234 339.50488281 -23.92490234 339.50488281 -29.02490234 339.50488281 C-29.02490234 339.17488281 -29.02490234 338.84488281 -29.02490234 338.50488281 C-29.9879126 338.47982666 -30.95092285 338.45477051 -31.94311523 338.42895508 C-35.54202852 338.33424011 -39.14077735 338.2341803 -42.73950195 338.13256836 C-44.29219698 338.08946037 -45.84493209 338.04777013 -47.39770508 338.00756836 C-49.63944537 337.94927592 -51.88098839 337.88575703 -54.12255859 337.82128906 C-54.80826431 337.80457657 -55.49397003 337.78786407 -56.20045471 337.77064514 C-60.55533598 337.63907161 -64.73158298 337.19073997 -69.02490234 336.50488281 C-69.02490234 337.16488281 -69.02490234 337.82488281 -69.02490234 338.50488281 C-70.01490234 338.83488281 -71.00490234 339.16488281 -72.02490234 339.50488281 C-72.51861328 338.90289062 -73.01232422 338.30089844 -73.52099609 337.68066406 C-76.72298732 334.89827855 -80.11102141 333.91363432 -84.08740234 332.69238281 C-91.48821242 330.26230143 -97.71143796 327.13625189 -104.02490234 322.50488281 C-104.78158203 321.9828125 -105.53826172 321.46074219 -106.31787109 320.92285156 C-106.88119141 320.45492188 -107.44451172 319.98699219 -108.02490234 319.50488281 C-108.02490234 318.84488281 -108.02490234 318.18488281 -108.02490234 317.50488281 C-108.58951172 317.29089844 -109.15412109 317.07691406 -109.73583984 316.85644531 C-112.81026065 315.04117296 -114.47359071 312.69671426 -116.64990234 309.87988281 C-118.0636422 308.05282366 -119.5123575 306.25102532 -121.02490234 304.50488281 C-121.68490234 304.50488281 -122.34490234 304.50488281 -123.02490234 304.50488281 C-124.02490234 301.50488281 -124.02490234 301.50488281 -124.02490234 299.50488281 C-124.67379403 297.90050337 -125.32705934 296.29769832 -126.0065918 294.70605469 C-131.3703907 282.10908705 -134.18151836 269.01568045 -134.16534424 255.29188538 C-134.16831536 254.49273364 -134.17128648 253.6935819 -134.17434764 252.87021345 C-134.18298147 250.20684049 -134.18453838 247.54351277 -134.18603516 244.88012695 C-134.19066724 242.96419174 -134.19569243 241.04825745 -134.20108032 239.13232422 C-134.21417208 233.93554951 -134.22064343 228.73878771 -134.22509098 223.5419991 C-134.22802801 220.2892987 -134.23213409 217.03660177 -134.23659515 213.78390312 C-134.25026401 203.58998858 -134.25993264 193.39608205 -134.26379704 183.20215899 C-134.26827097 171.46718324 -134.28579053 159.73232436 -134.31479764 147.99738413 C-134.33648196 138.90661989 -134.34650498 129.81588836 -134.34783816 120.72509855 C-134.34888172 115.30542114 -134.35469287 109.88585368 -134.37265778 104.46620369 C-134.38925466 99.3599567 -134.39123813 94.25390093 -134.38251877 89.14763641 C-134.38175447 87.28539197 -134.38600982 85.42313674 -134.39597702 83.56091881 C-134.51939791 59.04058793 -130.02148811 38.11487735 -112.71240234 19.75488281 C-105.9064215 13.20661553 -94.94019604 4.50488281 -85.02490234 4.50488281 C-84.69490234 3.84488281 -84.36490234 3.18488281 -84.02490234 2.50488281 C-81.51693683 2.01649365 -79.11537818 1.67898819 -76.57958984 1.42285156 C-75.78567841 1.33948044 -74.99176697 1.25610931 -74.17379761 1.17021179 C-63.99285251 0.19380323 -53.78155534 0.03065265 -43.56103516 -0.12817383 C-40.18927663 -0.18198875 -36.81817817 -0.25262065 -33.44677734 -0.32519531 C-22.27509805 -0.53701327 -11.1635596 -0.48294807 0 0 Z M-23.02490234 337.50488281 C-23.02490234 337.83488281 -23.02490234 338.16488281 -23.02490234 338.50488281 C-20.71490234 338.50488281 -18.40490234 338.50488281 -16.02490234 338.50488281 C-16.02490234 338.17488281 -16.02490234 337.84488281 -16.02490234 337.50488281 C-18.33490234 337.50488281 -20.64490234 337.50488281 -23.02490234 337.50488281 Z " fill="#588309" transform="translate(137.02490234375,3.4951171875)"/>
<path d="M0 0 C2.61382717 1.31645883 5.1324211 2.73737205 7.6550293 4.22119141 C8.60474609 4.7596167 9.55446289 5.29804199 10.53295898 5.8527832 C13.56523005 7.57994774 16.57977428 9.33523876 19.5925293 11.09619141 C21.54411368 12.22550997 23.49593479 13.35441954 25.44799805 14.48291016 C29.43333136 16.79456919 33.40990879 19.12053967 37.3815918 21.45556641 C43.80456286 25.22898542 50.25968061 28.94538069 56.7175293 32.65869141 C65.59254041 37.76713521 74.43219458 42.92996316 83.23193359 48.16699219 C88.29189058 51.17112534 93.37763479 54.12437225 98.49487305 57.02978516 C99.67654846 57.70290117 100.8581892 58.37607807 102.03979492 59.04931641 C104.3061659 60.34025138 106.57733225 61.62106767 108.85229492 62.89697266 C122.93126236 70.91209644 122.93126236 70.91209644 126.0925293 76.97119141 C126.8467211 81.68489017 126.86684975 85.61804481 124.67456055 89.88134766 C121.30772761 94.429162 116.82559038 96.903155 111.92431641 99.57299805 C105.95443491 102.82786363 100.21619987 106.40458209 94.4675293 110.03369141 C85.4956764 115.67965457 76.47469965 121.23453019 67.4050293 126.72119141 C59.2760675 131.64012061 51.16156375 136.57923662 43.0925293 141.59619141 C34.66430688 146.8335921 26.19813523 152.00672605 17.7175293 157.15869141 C17.11239502 157.52671875 16.50726074 157.89474609 15.88378906 158.27392578 C13.07187602 159.98355663 10.25709781 161.68788364 7.43701172 163.3840332 C5.75128843 164.39870811 4.06990309 165.42074652 2.3984375 166.45874023 C-2.62618237 169.50821612 -6.65217508 170.20553175 -12.4074707 169.09619141 C-16.28382719 167.08239635 -18.83133858 164.15587993 -20.4074707 160.09619141 C-20.66473961 157.24691963 -20.66473961 157.24691963 -20.67489624 153.88504028 C-20.68342621 152.60926117 -20.69195618 151.33348206 -20.70074463 150.01904297 C-20.70004562 148.60742175 -20.69912257 147.19580063 -20.69799805 145.78417969 C-20.70398318 144.29580345 -20.71078869 142.80743032 -20.71835327 141.31906128 C-20.736022 137.27768525 -20.74070901 133.23639392 -20.74198484 129.19498301 C-20.7434065 126.66952922 -20.74767636 124.14409697 -20.75297928 121.61864853 C-20.77148238 112.80662417 -20.77964953 103.99466033 -20.77807617 95.18261719 C-20.77687466 86.97099712 -20.79797804 78.75963985 -20.8295635 70.54808629 C-20.85572261 63.49572836 -20.86644362 56.44345629 -20.86516535 49.39105022 C-20.86465561 45.17996983 -20.87034529 40.969123 -20.89152145 36.75809097 C-20.91089786 32.79680834 -20.91103271 28.83598219 -20.89648819 24.87468338 C-20.89439823 23.42266676 -20.89911225 21.97062161 -20.91120911 20.51865387 C-20.92667846 18.53293037 -20.91494694 16.54705101 -20.90194702 14.56130981 C-20.90303656 13.45113558 -20.90412609 12.34096134 -20.90524864 11.19714546 C-20.14553718 6.46445212 -17.81979529 3.30675534 -14.2199707 0.22119141 C-9.4670515 -1.67997628 -4.83187861 -1.81397572 0 0 Z " fill="#FEFEFD" transform="translate(137.407470703125,86.90380859375)"/>
<path d="M0 0 C13.47581783 0.52759369 26.92624993 0.61174025 40.41078949 0.54948235 C44.39961741 0.53165611 48.38840176 0.52144381 52.3772583 0.51356506 C63.69409151 0.48983233 75.01086706 0.45343693 86.32763672 0.40893555 C92.6345391 0.38421884 98.94142083 0.36696722 105.24836469 0.35737616 C108.5572855 0.35197771 111.8660683 0.34156981 115.17494965 0.32398796 C143.31998411 0.17549349 168.8754835 1.27191758 190.44384766 21.84863281 C204.19404564 36.27785291 211.72412351 54.33702742 212.56616211 74.11230469 C212.6053819 74.99471077 212.64460169 75.87711685 212.68500996 76.78626251 C213.27018611 92.00340946 213.1401358 107.24674361 213.14235473 122.47246742 C213.14307303 125.24921996 213.14522169 128.02596777 213.14785194 130.80271912 C213.15705383 140.53335883 213.16119292 150.26398499 213.16040039 159.99462891 C213.15979942 168.99749633 213.17036852 178.00030389 213.18614405 187.00315619 C213.1993004 194.79492897 213.20458099 202.58668235 213.20394498 210.37846613 C213.20369258 215.00497212 213.20639961 219.63142461 213.21712303 224.25791931 C213.36098966 291.116866 213.36098966 291.116866 192.40087891 313.13378906 C179.62169046 325.62487987 165.45082649 332.96060849 147.97509766 336.50488281 C147.1569458 336.6749585 146.33879395 336.84503418 145.49584961 337.02026367 C137.26513482 338.57777144 129.37714526 338.68583971 121.02197266 338.48144531 C119.6266658 338.45520002 118.2313401 338.42993966 116.83599854 338.40560913 C113.20599053 338.33972193 109.57639071 338.26067474 105.94671631 338.1786499 C102.22586445 338.09697292 98.50477692 338.02806751 94.78369141 337.95800781 C87.51387477 337.81929039 80.24444219 337.66663499 72.97509766 337.50488281 C72.64509766 338.16488281 72.31509766 338.82488281 71.97509766 339.50488281 C71.97509766 338.84488281 71.97509766 338.18488281 71.97509766 337.50488281 C43.59509766 337.83488281 15.21509766 338.16488281 -14.02490234 338.50488281 C-14.02490234 338.83488281 -14.02490234 339.16488281 -14.02490234 339.50488281 C-18.97490234 339.50488281 -23.92490234 339.50488281 -29.02490234 339.50488281 C-29.02490234 339.17488281 -29.02490234 338.84488281 -29.02490234 338.50488281 C-29.9879126 338.47982666 -30.95092285 338.45477051 -31.94311523 338.42895508 C-35.54202852 338.33424011 -39.14077735 338.2341803 -42.73950195 338.13256836 C-44.29219698 338.08946037 -45.84493209 338.04777013 -47.39770508 338.00756836 C-49.63944537 337.94927592 -51.88098839 337.88575703 -54.12255859 337.82128906 C-54.80826431 337.80457657 -55.49397003 337.78786407 -56.20045471 337.77064514 C-60.55533598 337.63907161 -64.73158298 337.19073997 -69.02490234 336.50488281 C-69.02490234 337.16488281 -69.02490234 337.82488281 -69.02490234 338.50488281 C-70.01490234 338.83488281 -71.00490234 339.16488281 -72.02490234 339.50488281 C-72.51861328 338.90289062 -73.01232422 338.30089844 -73.52099609 337.68066406 C-76.72298732 334.89827855 -80.11102141 333.91363432 -84.08740234 332.69238281 C-91.48821242 330.26230143 -97.71143796 327.13625189 -104.02490234 322.50488281 C-104.78158203 321.9828125 -105.53826172 321.46074219 -106.31787109 320.92285156 C-106.88119141 320.45492188 -107.44451172 319.98699219 -108.02490234 319.50488281 C-108.02490234 318.84488281 -108.02490234 318.18488281 -108.02490234 317.50488281 C-108.58951172 317.29089844 -109.15412109 317.07691406 -109.73583984 316.85644531 C-112.81026065 315.04117296 -114.47359071 312.69671426 -116.64990234 309.87988281 C-118.0636422 308.05282366 -119.5123575 306.25102532 -121.02490234 304.50488281 C-121.68490234 304.50488281 -122.34490234 304.50488281 -123.02490234 304.50488281 C-124.02490234 301.50488281 -124.02490234 301.50488281 -124.02490234 299.50488281 C-124.67379403 297.90050337 -125.32705934 296.29769832 -126.0065918 294.70605469 C-131.3703907 282.10908705 -134.18151836 269.01568045 -134.16534424 255.29188538 C-134.16831536 254.49273364 -134.17128648 253.6935819 -134.17434764 252.87021345 C-134.18298147 250.20684049 -134.18453838 247.54351277 -134.18603516 244.88012695 C-134.19066724 242.96419174 -134.19569243 241.04825745 -134.20108032 239.13232422 C-134.21417208 233.93554951 -134.22064343 228.73878771 -134.22509098 223.5419991 C-134.22802801 220.2892987 -134.23213409 217.03660177 -134.23659515 213.78390312 C-134.25026401 203.58998858 -134.25993264 193.39608205 -134.26379704 183.20215899 C-134.26827097 171.46718324 -134.28579053 159.73232436 -134.31479764 147.99738413 C-134.33648196 138.90661989 -134.34650498 129.81588836 -134.34783816 120.72509855 C-134.34888172 115.30542114 -134.35469287 109.88585368 -134.37265778 104.46620369 C-134.38925466 99.3599567 -134.39123813 94.25390093 -134.38251877 89.14763641 C-134.38175447 87.28539197 -134.38600982 85.42313674 -134.39597702 83.56091881 C-134.51939791 59.04058793 -130.02148811 38.11487735 -112.71240234 19.75488281 C-105.9064215 13.20661553 -94.94019604 4.50488281 -85.02490234 4.50488281 C-84.69490234 3.84488281 -84.36490234 3.18488281 -84.02490234 2.50488281 C-81.51693683 2.01649365 -79.11537818 1.67898819 -76.57958984 1.42285156 C-75.78567841 1.33948044 -74.99176697 1.25610931 -74.17379761 1.17021179 C-63.99285251 0.19380323 -53.78155534 0.03065265 -43.56103516 -0.12817383 C-40.18927663 -0.18198875 -36.81817817 -0.25262065 -33.44677734 -0.32519531 C-22.27509805 -0.53701327 -11.1635596 -0.48294807 0 0 Z M-88.02490234 17.50488281 C-88.78902907 17.805635 -89.5531558 18.1063872 -90.34043789 18.41625309 C-96.57296579 21.0003033 -101.28004035 25.83990065 -106.02490234 30.50488281 C-106.89501953 31.35566406 -106.89501953 31.35566406 -107.78271484 32.22363281 C-121.28347371 46.6432915 -122.63344845 66.55979601 -122.51074219 85.19897461 C-122.51289367 87.12110654 -122.51677967 89.04323719 -122.52224731 90.96536255 C-122.53185536 96.13674165 -122.51674617 101.30776995 -122.49634123 106.47910666 C-122.47863449 111.9168779 -122.4822979 117.35464049 -122.48306274 122.79243469 C-122.48119609 131.91677643 -122.46391655 141.04098424 -122.43652344 150.1652832 C-122.40505126 160.68657819 -122.39452865 171.20772693 -122.39599454 181.7290656 C-122.39734941 192.97582554 -122.38344918 204.22252979 -122.36510134 215.46927285 C-122.36085649 218.69146391 -122.35942143 221.91364587 -122.3586235 225.13583946 C-122.35660206 230.21264416 -122.34429096 235.289328 -122.32429123 240.36609268 C-122.31849228 242.21991675 -122.31598003 244.07375474 -122.3171463 245.92758751 C-122.32498362 265.98331289 -120.41413 284.95120889 -108.02490234 301.50488281 C-107.45255859 302.28347656 -106.88021484 303.06207031 -106.29052734 303.86425781 C-95.57385037 317.14560962 -79.59910266 323.51702884 -63.02490234 325.50488281 C-60.25990938 325.59767797 -57.52045913 325.64855734 -54.75616455 325.64532471 C-53.54836134 325.64978139 -53.54836134 325.64978139 -52.31615806 325.65432811 C-49.63214805 325.66296299 -46.94818292 325.66451896 -44.26416016 325.66601562 C-42.33338833 325.67064774 -40.4026174 325.67567293 -38.47184753 325.68106079 C-33.2335504 325.69415479 -27.99526608 325.70062469 -22.75695515 325.70507145 C-19.47675977 325.70800895 -16.19656784 325.71211517 -12.91637421 325.71657562 C-2.6322183 325.7302469 7.65192968 325.73991357 17.93609405 325.74377751 C29.76669026 325.74824791 41.59717034 325.76574998 53.42773128 325.79477811 C62.59667337 325.81648587 71.76558303 325.82648674 80.93455052 325.82781863 C86.39847744 325.8288608 91.86229515 325.83464134 97.32619476 325.85263824 C102.47759319 325.86927532 107.62880219 325.87119964 112.78021812 325.86249924 C114.65571543 325.86173696 116.53122358 325.86596251 118.40669441 325.87595749 C142.57389863 325.99704237 164.87330572 323.11574862 183.22509766 305.81738281 C194.74478905 293.73084946 200.12624726 278.67107974 200.12226868 262.1396637 C200.12778371 260.89828208 200.12778371 260.89828208 200.13341016 259.63182205 C200.14439884 256.86627669 200.14828267 254.10076896 200.15209961 251.33520508 C200.15836804 249.34882998 200.16501517 247.36245604 200.17201233 245.37608337 C200.19301498 238.85782685 200.20341313 232.3395702 200.21337891 225.82128906 C200.21742828 223.57238185 200.22154525 221.32347476 200.22572899 219.07456779 C200.24477456 208.50422917 200.25900533 197.93389748 200.26734096 187.363545 C200.27710272 175.18761387 200.30339729 163.01186505 200.34384185 150.83599812 C200.37407384 141.40896759 200.38881665 131.98198911 200.39212197 122.55491108 C200.39446489 116.93232844 200.40332611 111.3099407 200.42858315 105.68741035 C200.45199218 100.39072332 200.45604579 95.09435772 200.44582176 89.79763222 C200.44532936 87.86401038 200.45156166 85.93037201 200.46537781 83.99679947 C200.60241619 63.66447796 196.92105175 45.9928755 182.29150391 30.71972656 C165.96691681 15.11088865 148.94220813 13.04959826 127.2565918 13.10083008 C125.06904249 13.09512006 122.88149615 13.08815337 120.69395447 13.08003235 C114.78071434 13.06215644 108.86762305 13.06325877 102.95436406 13.06897473 C98.00668798 13.07207441 93.05904017 13.06596553 88.11136812 13.05993599 C75.76812324 13.04511049 63.42495935 13.04868878 51.08171462 13.06079929 C39.72493255 13.07134725 28.36836297 13.054753 17.01160723 13.02944142 C6.66558424 13.00725082 -3.68036889 13.00065456 -14.02641398 13.00651783 C-20.19543304 13.00988027 -26.36430911 13.00751955 -32.53330803 12.9902668 C-38.33568596 12.97474606 -44.13773455 12.97881024 -49.94009972 12.99757195 C-52.06161183 13.0012435 -54.18314863 12.99819151 -56.30463791 12.98768616 C-67.59770228 12.93606085 -77.44036643 13.1504294 -88.02490234 17.50488281 Z M-23.02490234 337.50488281 C-23.02490234 337.83488281 -23.02490234 338.16488281 -23.02490234 338.50488281 C-20.71490234 338.50488281 -18.40490234 338.50488281 -16.02490234 338.50488281 C-16.02490234 338.17488281 -16.02490234 337.84488281 -16.02490234 337.50488281 C-18.33490234 337.50488281 -20.64490234 337.50488281 -23.02490234 337.50488281 Z " fill="#FAFBF9" transform="translate(137.02490234375,3.4951171875)"/>
<path d="M0 0 C4.62 0 9.24 0 14 0 C14 0.33 14 0.66 14 1 C9.38 1 4.76 1 0 1 C0 0.67 0 0.34 0 0 Z " fill="#FFFFFF" transform="translate(188,342)"/>
<path d="M0 0 C3.96 0 7.92 0 12 0 C12 0.33 12 0.66 12 1 C8.04 1 4.08 1 0 1 C0 0.67 0 0.34 0 0 Z " fill="#FFFFFF" transform="translate(254,342)"/>
<path d="M0 0 C3.63 0 7.26 0 11 0 C11 0.33 11 0.66 11 1 C7.37 1 3.74 1 0 1 C0 0.67 0 0.34 0 0 Z " fill="#FFFFFF" transform="translate(124,342)"/>
<path d="M0 0 C1.98 0 3.96 0 6 0 C6 0.33 6 0.66 6 1 C4.02 1 2.04 1 0 1 C0 0.67 0 0.34 0 0 Z " fill="#FFFFFF" transform="translate(92,342)"/>
<path d="M0 0 C0.99 0.99 1.98 1.98 3 3 C2.01 3.495 2.01 3.495 1 4 C0.67 2.68 0.34 1.36 0 0 Z " fill="#FFFFF8" transform="translate(15,308)"/>
<path d="M0 0 C4 1 4 1 4 1 Z " fill="#FFFFFF" transform="translate(238,342)"/>
<path d="M0 0 C4 1 4 1 4 1 Z " fill="#FFFFFF" transform="translate(228,342)"/>
<path d="M0 0 C4 1 4 1 4 1 Z " fill="#FFFFFF" transform="translate(220,342)"/>
<path d="M0 0 C4 1 4 1 4 1 Z " fill="#FFFFFF" transform="translate(212,342)"/>
<path d="M0 0 C4 1 4 1 4 1 Z " fill="#FFFFFF" transform="translate(203,342)"/>
<path d="M0 0 C4 1 4 1 4 1 Z " fill="#FFFFFF" transform="translate(172,342)"/>
<path d="M0 0 C4 1 4 1 4 1 Z " fill="#FFFFF4" transform="translate(140,342)"/>
<path d="M0 0 C1 4 1 4 1 4 Z " fill="#FFFFFF" transform="translate(1,93)"/>
<path d="M0 0 C3 1 3 1 3 1 Z " fill="#FFFFFF" transform="translate(268,342)"/>
<path d="M0 0 C3 1 3 1 3 1 Z " fill="#FFFFFF" transform="translate(180,342)"/>
<path d="M0 0 C3 1 3 1 3 1 Z " fill="#FFFFFF" transform="translate(156,342)"/>
<path d="M0 0 C3 1 3 1 3 1 Z " fill="#FFFFFF" transform="translate(69,341)"/>
<path d="" fill="#FFFFFF" transform="translate(0,0)"/>
<path d="" fill="#FFFFFF" transform="translate(0,0)"/>
<path d="" fill="#FFFFFF" transform="translate(0,0)"/>
<path d="M0 0 C0.99 0.495 0.99 0.495 2 1 C1.01 1.495 1.01 1.495 0 2 C0 1.34 0 0.68 0 0 Z " fill="#FFFFFF" transform="translate(18,27)"/>
<path d="M0 0 C3 1 3 1 3 1 Z " fill="#FFFFFF" transform="translate(258,3)"/>
<path d="M0 0 C3 1 3 1 3 1 Z " fill="#FFFFFF" transform="translate(114,2)"/>
<path d="M0 0 C3 1 3 1 3 1 Z " fill="#FFFFFF" transform="translate(99,2)"/>
<path d="M0 0 C2 1 2 1 2 1 Z " fill="#FFFFFF" transform="translate(184,342)"/>
<path d="M0 0 C2 1 2 1 2 1 Z " fill="#FFFFFF" transform="translate(148,342)"/>
<path d="M0 0 C2 1 2 1 2 1 Z " fill="#FFFFFF" transform="translate(104,342)"/>
<path d="M0 0 C2 1 2 1 2 1 Z " fill="#FFFFFF" transform="translate(99,342)"/>
<path d="M0 0 C2 1 2 1 2 1 Z " fill="#FFFFFF" transform="translate(85,342)"/>
<path d="M0 0 C2 1 2 1 2 1 Z " fill="#FFFFFF" transform="translate(78,342)"/>
<path d="M0 0 C2 1 2 1 2 1 Z " fill="#FFFFFF" transform="translate(57,339)"/>
<path d="M0 0 C2 1 2 1 2 1 Z " fill="#FFFFFF" transform="translate(43,336)"/>
<path d="M0 0 C2 1 2 1 2 1 Z " fill="#FFFFE5" transform="translate(44,334)"/>
<path d="M0 0 C2 1 2 1 2 1 Z " fill="#FFFFFF" transform="translate(42,333)"/>
<path d="M0 0 C2 1 2 1 2 1 Z " fill="#FFFFFF" transform="translate(15,316)"/>
<path d="" fill="#FFFFFF" transform="translate(0,0)"/>
<path d="M0 0 C2 1 2 1 2 1 Z " fill="#FFFFFF" transform="translate(5,290)"/>
<path d="" fill="#FFFFFF" transform="translate(0,0)"/>
<path d="" fill="#FFFFFF" transform="translate(0,0)"/>
<path d="" fill="#FFFFFF" transform="translate(0,0)"/>
<path d="" fill="#FFFFFF" transform="translate(0,0)"/>
<path d="" fill="#FFFFFF" transform="translate(0,0)"/>
<path d="M0 0 C2 1 2 1 2 1 Z " fill="#FFFFFF" transform="translate(15,28)"/>
<path d="" fill="#FFFFFF" transform="translate(0,0)"/>
<path d="M0 0 C2 1 2 1 2 1 Z " fill="#FFFFFF" transform="translate(49,6)"/>
<path d="" fill="#FFFFFF" transform="translate(0,0)"/>
<path d="M0 0 C2 1 2 1 2 1 Z " fill="#FFFFFF" transform="translate(203,3)"/>
<path d="M0 0 C2 1 2 1 2 1 Z " fill="#FFFFFF" transform="translate(62,3)"/>
<path d="M0 0 C2 1 2 1 2 1 Z " fill="#FFFFFF" transform="translate(130,2)"/>
<path d="M0 0 C2 1 2 1 2 1 Z " fill="#FFFFFF" transform="translate(108,2)"/>
<path d="M0 0 C2 1 2 1 2 1 Z " fill="#FFFFFF" transform="translate(91,2)"/>
<path d="" fill="#FFFFFF" transform="translate(0,0)"/>
<path d="" fill="#FFFFFF" transform="translate(0,0)"/>
<path d="" fill="#FFFFFF" transform="translate(0,0)"/>
<path d="" fill="#FFFFFF" transform="translate(0,0)"/>
<path d="" fill="#FFFFFF" transform="translate(0,0)"/>
<path d="" fill="#FFFFFF" transform="translate(0,0)"/>
<path d="" fill="#FFFFFF" transform="translate(0,0)"/>
<path d="" fill="#FFFFFF" transform="translate(0,0)"/>
<path d="" fill="#FFFFFF" transform="translate(0,0)"/>
<path d="" fill="#FFFFFF" transform="translate(0,0)"/>
<path d="" fill="#FFFFFF" transform="translate(0,0)"/>
<path d="" fill="#FFFFFF" transform="translate(0,0)"/>
<path d="" fill="#FFFFFF" transform="translate(0,0)"/>
<path d="" fill="#FFFFFF" transform="translate(0,0)"/>
<path d="" fill="#FFFFFF" transform="translate(0,0)"/>
<path d="" fill="#FFFFFF" transform="translate(0,0)"/>
<path d="" fill="#FFFFFF" transform="translate(0,0)"/>
<path d="" fill="#FFFFFF" transform="translate(0,0)"/>
<path d="" fill="#FFFFFF" transform="translate(0,0)"/>
<path d="" fill="#FFFFFF" transform="translate(0,0)"/>
<path d="" fill="#FFFFFF" transform="translate(0,0)"/>
<path d="" fill="#FFFFFF" transform="translate(0,0)"/>
<path d="" fill="#FFFFFF" transform="translate(0,0)"/>
<path d="" fill="#FFFFFF" transform="translate(0,0)"/>
<path d="" fill="#FFFFFF" transform="translate(0,0)"/>
<path d="" fill="#FFFFFF" transform="translate(0,0)"/>
<path d="" fill="#FFFFFF" transform="translate(0,0)"/>
<path d="" fill="#FFFFFF" transform="translate(0,0)"/>
<path d="" fill="#FFFFFF" transform="translate(0,0)"/>
<path d="" fill="#FFFFFF" transform="translate(0,0)"/>
<path d="" fill="#FFFFFF" transform="translate(0,0)"/>
<path d="" fill="#FFFFFF" transform="translate(0,0)"/>
<path d="" fill="#FFFFFF" transform="translate(0,0)"/>
<path d="" fill="#FFFFFF" transform="translate(0,0)"/>
<path d="" fill="#FFFFFF" transform="translate(0,0)"/>
<path d="" fill="#FFFFFF" transform="translate(0,0)"/>
<path d="" fill="#FFFFFF" transform="translate(0,0)"/>
<path d="" fill="#FFFFFF" transform="translate(0,0)"/>
<path d="" fill="#FFFFFF" transform="translate(0,0)"/>
<path d="" fill="#FFFFFF" transform="translate(0,0)"/>
<path d="" fill="#FFFFFF" transform="translate(0,0)"/>
<path d="" fill="#FFFFFF" transform="translate(0,0)"/>
<path d="" fill="#FFFFFF" transform="translate(0,0)"/>
<path d="" fill="#FFFFFF" transform="translate(0,0)"/>
<path d="" fill="#FFFFFF" transform="translate(0,0)"/>
<path d="" fill="#FFFFFF" transform="translate(0,0)"/>
<path d="" fill="#FFFFFF" transform="translate(0,0)"/>
<path d="" fill="#FFFFFF" transform="translate(0,0)"/>
<path d="" fill="#FFFFFF" transform="translate(0,0)"/>
<path d="" fill="#FFFFFF" transform="translate(0,0)"/>
<path d="" fill="#FFFFFF" transform="translate(0,0)"/>
<path d="" fill="#FFFFFF" transform="translate(0,0)"/>
<path d="" fill="#FFFFFF" transform="translate(0,0)"/>
<path d="" fill="#FFFFFF" transform="translate(0,0)"/>
<path d="" fill="#FFFFFF" transform="translate(0,0)"/>
<path d="" fill="#FFFFFF" transform="translate(0,0)"/>
<path d="" fill="#FFFFFF" transform="translate(0,0)"/>
<path d="" fill="#FFFFFF" transform="translate(0,0)"/>
<path d="" fill="#FFFFFF" transform="translate(0,0)"/>
<path d="" fill="#FFFFFF" transform="translate(0,0)"/>
<path d="" fill="#FFFFFF" transform="translate(0,0)"/>
<path d="" fill="#FFFFFF" transform="translate(0,0)"/>
<path d="" fill="#FFFFFF" transform="translate(0,0)"/>
<path d="" fill="#FFFFFF" transform="translate(0,0)"/>
<path d="" fill="#FFFFFF" transform="translate(0,0)"/>
<path d="" fill="#FFFFFF" transform="translate(0,0)"/>
<path d="" fill="#FFFFFF" transform="translate(0,0)"/>
</svg>
