<svg xmlns="http://www.w3.org/2000/svg" width="443" height="317" xmlns:xlink="http://www.w3.org/1999/xlink"><path d="M155.6549,53.4493c28.077,-26.084 65.316,-40.4531 105.0178,-40.4531c39.7018,0 17.1417,0.6407 25.4171,2.0135c-22.2646,-9.5184 -45.1202,-14.0945 -64.6263,-14.3691c-5.4184,-0.3661 -10.9353,-0.6407 -16.4521,-0.6407h-204.8142l-0.197,13.4539c0.2955,5.3998 0.197,10.7997 0.4926,16.1995c3.054,57.2018 15.861,125.6608 68.764,161.5378c17.7328,11.9895 38.1256,19.3113 59.5035,23.2468c-10.8367,-19.4028 -16.5507,-41.0022 -16.5507,-63.4253c0,-36.8837 15.467,-71.4793 43.544,-97.5633z" fill="#6b8e23"></path><path d="M128.4401,154.6191c0,-70.442 57.3076,-127.5466 128,-127.5466c70.6925,0 128,57.1046 128,127.5466c0,70.442 -57.3075,127.5466 -128,127.5466c-70.6925,0 -128,-57.1046 -128,-127.5466zM256.4401,251.6704c55.0952,0 99.7586,-43.4513 99.7586,-97.0513c0,-53.5999 -44.6634,-97.0513 -99.7586,-97.0513c-55.0952,0 -99.7586,43.4513 -99.7586,97.0513c0,53.5999 44.6634,97.0513 99.7586,97.0513z" fill="#6b8e23"></path><polygon points="421.0975,317.3765 336.3325,243.6914 358.6751,217.9892 443.4401,291.6743" fill="#6b8e23"></polygon></svg>