<?xml version="1.0" encoding="utf-8"?>
<svg xmlns="http://www.w3.org/2000/svg" viewBox="0.522 20.508 537.8 298.798">
  <path style="fill: rgb(255, 255, 255); transform-origin: 100.586px 104.77px;" d="M 0.931 24.091 C 0.931 24.091 0.742 58.798 1.271 75.942 C 1.801 93.112 0.713 101.933 2.459 114.76 C 4.633 130.733 12.975 140.026 12.975 140.026 L 20.971 148.811 L 31.188 157.867 L 38.709 163.031 L 46.798 166.434 L 72.771 171.449 L 215.447 171.849 L 222.659 123.906 L 211.519 77.224 C 211.519 77.224 199.101 58.492 169.122 43.236 C 160.717 38.959 160.116 38.792 147.29 35.722 C 143.192 34.741 134.338 32.36 126.619 30.383 C 127 30.197 117.53 27.977 113.451 26.914 C 102.479 24.056 81.852 22.615 80.413 22.603 C 47.212 22.315 0.931 23.319 0.931 24.091 Z"/>
  <g id="Capa_1" transform="matrix(0.759477, 0, 0, 0.793155, -12.324848, 10.437386)" style="">
    <g id="SVGRepo_bgCarrier" stroke-width="0" transform="matrix(0.56687, 0, 0, 0.559442, 65.768494, 31.050718)" style=""/>
    <g id="SVGRepo_tracerCarrier" stroke-linecap="round" stroke-linejoin="round" transform="matrix(0.56687, 0, 0, 0.559442, 65.768494, 31.050718)" style=""/>
    <g id="SVGRepo_iconCarrier" transform="matrix(0.56687, 0, 0, 0.559442, 65.768494, 31.050718)" style="">
      <g>
        <path d="M 521.268 454.796 L 410.768 344.196 C 440.568 307.896 458.368 261.396 458.368 210.796 C 458.368 94.496 364.068 0.196 247.768 0.196 C 131.468 0.196 37.168 94.496 37.168 210.796 C 37.168 327.096 131.468 421.396 247.768 421.396 C 298.568 421.396 345.168 403.396 381.568 373.396 L 492.068 483.896 C 504.968 495.696 517.068 488.096 521.268 483.896 C 529.668 475.596 529.668 463.096 521.268 454.796 Z M 78.268 210.796 C 78.268 117.196 154.168 41.296 247.768 41.296 C 341.368 41.296 417.368 117.196 417.368 210.796 C 417.368 304.396 341.468 380.296 247.868 380.296 C 154.268 380.296 78.268 304.396 78.268 210.796 Z" style="stroke-width: 9.15071px; fill: rgb(255, 255, 255); stroke: rgb(137, 168, 40);"/>
      </g>
    </g>
  </g>
  <text style="fill: rgb(137, 168, 40); font-family: Arial, sans-serif; font-size: 80px; letter-spacing: 3.1px; white-space: pre;" x="91.103" y="152.812">tea</text>
  <text style="fill: rgb(255, 255, 255); font-family: Arial, sans-serif; font-size: 80px; letter-spacing: 2.5px; white-space: pre;" x="237.583" y="152.655">search</text>
  <text style="fill: rgb(255, 255, 255); font-family: Arial, sans-serif; font-size: 44px; white-space: pre;" x="5.108" y="313.861">Tea Science &amp; Culture Hub</text>
</svg>