<?xml version="1.0" encoding="UTF-8"?>
<svg id="Livello_1" xmlns="http://www.w3.org/2000/svg" version="1.1" viewBox="0 0 841.9 595.3">
  <!-- Generator: Adobe Illustrator 29.2.0, SVG Export Plug-In . SVG Version: 2.1.0 Build 108)  -->
  <defs>
    <style>
      .st0 {
        fill: #fff;
      }
    </style>
  </defs>
  <rect class="st0" x="439.9" y="398.4" width="20.3" height="130.1" transform="translate(-194.8 501.4) rotate(-49.2)"/>
  <path class="st0" d="M426.1,369.6"/>
  <path class="st0" d="M393.6,411.4c-24,24-55.8,37.1-89.7,37.1s-65.7-13.2-89.7-37.1c-49.5-49.5-49.5-129.9,0-179.4,24-24,55.8-37.2,89.7-37.2s65.7,13.2,89.7,37.2c10.2,10.2,18.3,21.7,24.3,34h21.9c-7.2-17.5-17.8-34-32-48.2-27.7-27.7-64.6-43-103.8-43s-76.1,15.3-103.8,43c-27.7,27.7-43,64.6-43,103.8s15.3,76.1,43,103.8c27.7,27.7,64.6,43,103.8,43s76.1-15.3,103.8-43c14.5-14.5,25.4-31.4,32.5-49.4h-21.8c-6,12.8-14.3,24.7-24.9,35.3Z"/>
  <g>
    <path class="st0" d="M433.3,341.5l8.3-9.3c5,4.2,12.3,7.8,20.7,7.8s13.1-2.1,13.1-7.6-6.7-6.9-14.6-8.8c-11.3-2.6-24.8-5.6-24.8-20.8s9.9-19.3,24.4-19.3,20.2,3.6,27,9.3l-7.3,9.9c-4.8-4-12.6-7.2-18.6-7.2-8.4,0-11.2,3-11.2,6.7,0,5.3,6.6,6.9,14.4,8.7,11.3,2.5,25,5.3,25,20.7s-12.5,20.3-27.5,20.3-23.1-4.3-29-10.4Z"/>
    <path class="st0" d="M498.4,317.7c0-25,17.7-34.2,31.4-34.2s28.9,8.8,28.9,35.6v3.6h-45c.6,11.9,7.9,17.1,17.6,17.1s13.5-2.8,18.5-7.7l8.1,7.9c-6.8,7.6-15.9,11.9-27.6,11.9s-31.7-10-31.7-34.2ZM544.6,311.3c-.9-10-5.8-15.4-15-15.4s-14.3,4.2-15.7,15.4h30.7Z"/>
    <path class="st0" d="M566.8,334.7c0-14.3,12.1-23.8,42.9-27.3v-2c0-6.6-3.5-9.4-10.8-9.4s-16.6,4.5-22.2,8.9l-7.4-9.5c7.1-6.4,18.1-11.9,31.7-11.9s23.7,8.4,23.7,23.8v27.1c0,7.9.5,12.8,1.9,16.1h-15.4c-.9-2.7-1.5-4.7-1.5-8.4-6.7,6.8-14.5,9.4-24.3,9.4s-18.6-5.9-18.6-16.9ZM609.7,332.2v-14.5c-18.2,2.5-27.9,6.9-27.9,14.1s3.6,7.9,9.2,7.9,13.9-3,18.7-7.6Z"/>
    <path class="st0" d="M641,350.6v-65.8h15.2v10.8h.2c4.1-6.6,11.2-12,23.7-12h1l-.5,14c-.7-.1-3.2-.2-4.1-.2-9.8,0-16,4.6-20.3,11.7v41.6h-15.2Z"/>
    <path class="st0" d="M685.3,317.7c0-25.2,17-34.2,31.6-34.2s23.3,9,27.3,19.2l-12.9,4.6c-2.6-7.4-7.3-11-14.6-11s-16,5.7-16,21.4,5.7,21.7,15.7,21.7,11.8-2.1,15.4-11.4l12.6,4.6c-4.7,10.5-12.5,19.3-28.4,19.3s-30.7-10.2-30.7-34.2Z"/>
    <path class="st0" d="M756.5,350.6v-91.7h15.4v34.8c4.2-4.5,12.1-10.2,24-10.2s19,6.8,19,19.8v47.2h-15.4v-43.4c0-7.3-3.1-10.7-9.8-10.7s-12.3,3.5-17.8,8.6v45.5h-15.4Z"/>
  </g>
  <g>
    <path class="st0" d="M364.6,332.1c0,5.2,3.6,7.9,9.2,7.9s13.9-3,18.7-7.6v-14.5c-18.2,2.5-27.9,6.9-27.9,14.1Z"/>
    <path class="st0" d="M312.4,296.1c-7.4,0-14.3,4.2-15.7,15.4h30.7c-.9-10-5.8-15.4-15-15.4Z"/>
    <path class="st0" d="M417,277.2c-1.8-6.9-4.5-13.5-8.2-19.6-5-8.3-11-15.9-17.9-22.8-23.2-23.2-54.1-36-86.9-36s-63.7,12.8-86.9,36c-23.2,23.2-35.9,54-35.9,86.9s8.3,51.6,23.6,72.5c.5.6,1.2,1,1.9,1.1,0,0,.1,0,.2,0h194.2c.8,0,1.6-.4,2.1-1.1,3.2-4.4,6.1-8.9,8.7-13.7,0,0,21.9-38.2,5.1-103.3ZM273,297.1h-17v32.6c0,7.1,2.1,9.9,9.7,9.9s5.1-.4,6.6-.9v12c-1.6.4-7.3.9-11.2.9-16.7,0-20.3-6.2-20.3-18.1v-36.4h-11.4v-12.1h11.4v-22.9h15.2v22.9h17v12.1ZM341.4,322.9h-45c.6,11.9,7.9,17.1,17.6,17.1s13.5-2.8,18.5-7.7l8.1,7.9c-6.8,7.6-15.9,11.9-27.6,11.9s-31.7-10-31.7-34.2,17.7-34.2,31.4-34.2,28.9,8.8,28.9,35.6v3.6ZM394,350.8c-.9-2.7-1.5-4.7-1.5-8.4-6.7,6.8-14.5,9.4-24.3,9.4s-18.6-5.9-18.6-16.9,12.1-23.8,42.9-27.3v-2c0-6.6-3.5-9.4-10.8-9.4s-16.6,4.5-22.2,8.9l-7.4-9.5c7.1-6.4,18.1-11.9,31.7-11.9s23.7,8.4,23.7,23.8v27.1c0,7.9.5,12.8,1.9,16.1h-15.4Z"/>
    <path class="st0" d="M197.4,215.2c28.5-28.5,66.3-44.2,106.6-44.2s17.4.7,25.8,2.2c-22.6-10.4-45.8-15.4-65.6-15.7-5.5-.4-11.1-.7-16.7-.7H39.5l-.2,14.7c.3,5.9.2,11.8.5,17.7,3.1,62.5,16.1,137.3,69.8,176.5,18,13.1,38.7,21.1,60.4,25.4-11-21.2-16.8-44.8-16.8-69.3,0-40.3,15.7-78.1,44.2-106.6Z"/>
  </g>
</svg>